<?xml version="1.0" encoding="UTF-8" standalone="no"?>
<!-- Created with Inkscape (http://www.inkscape.org/) -->

<svg
   xmlns:dc="http://purl.org/dc/elements/1.1/"
   xmlns:cc="http://creativecommons.org/ns#"
   xmlns:rdf="http://www.w3.org/1999/02/22-rdf-syntax-ns#"
   xmlns:svg="http://www.w3.org/2000/svg"
   xmlns="http://www.w3.org/2000/svg"
   xmlns:sodipodi="http://sodipodi.sourceforge.net/DTD/sodipodi-0.dtd"
   xmlns:inkscape="http://www.inkscape.org/namespaces/inkscape"
   width="744.09448819"
   height="1052.3622047"
   id="svg2838"
   version="1.1"
   inkscape:version="0.47 r22583"
   sodipodi:docname="2.svg">
  <defs
     id="defs2840">
    <inkscape:path-effect
       effect="skeletal"
       id="path-effect2850"
       is_visible="true"
       pattern="m 161.11111,293.51852 1,0"
       copytype="single_stretched"
       prop_scale="1"
       scale_y_rel="false"
       spacing="0"
       normal_offset="0"
       tang_offset="0"
       prop_units="false"
       vertical_pattern="false"
       fuse_tolerance="0" />
    <inkscape:perspective
       sodipodi:type="inkscape:persp3d"
       inkscape:vp_x="0 : 526.18109 : 1"
       inkscape:vp_y="0 : 1000 : 0"
       inkscape:vp_z="744.09448 : 526.18109 : 1"
       inkscape:persp3d-origin="372.04724 : 350.78739 : 1"
       id="perspective2846" />
  </defs>
  <sodipodi:namedview
     id="base"
     pagecolor="#ffffff"
     bordercolor="#666666"
     borderopacity="1.0"
     inkscape:pageopacity="0.0"
     inkscape:pageshadow="2"
     inkscape:zoom="1.08"
     inkscape:cx="369.26946"
     inkscape:cy="610.44035"
     inkscape:document-units="px"
     inkscape:current-layer="layer1"
     showgrid="false"
     inkscape:window-width="1276"
     inkscape:window-height="858"
     inkscape:window-x="237"
     inkscape:window-y="454"
     inkscape:window-maximized="0" />
  <metadata
     id="metadata2843">
    <rdf:RDF>
      <cc:Work
         rdf:about="">
        <dc:format>image/svg+xml</dc:format>
        <dc:type
           rdf:resource="http://purl.org/dc/dcmitype/StillImage" />
        <dc:title></dc:title>
      </cc:Work>
    </rdf:RDF>
  </metadata>
  <g
     inkscape:label="Layer 1"
     inkscape:groupmode="layer"
     id="layer1">
    <path
       style="fill:none;stroke:#000000;stroke-width:10;stroke-miterlimit:4;stroke-opacity:1;stroke-dasharray:20, 20;stroke-dashoffset:0"
       d="m 209.68254,328.73784 380,31.42858 c 0.009,0.0132 0.0128,0.0197 0.017,0.0262 0.0166,0.0256 0.0332,0.0512 0.0497,0.0769 0.0651,0.10102 0.12988,0.2023 0.1944,0.30371 0,0 0,0 0,0 0.25169,0.39554 0.50019,0.7931 0.7469,1.19176 10e-6,1e-5 2e-5,2e-5 2e-5,3e-5 10e-6,10e-6 10e-6,2e-5 2e-5,3e-5 0.94009,1.51905 1.85428,3.05404 2.75233,4.59832 10e-6,10e-6 10e-6,2e-5 2e-5,3e-5 0,1e-5 10e-6,2e-5 10e-6,2e-5 3.24659,5.5828 6.28124,11.28779 9.14777,17.07493 0,1e-5 10e-6,2e-5 10e-6,3e-5 9.15479,18.48229 16.62761,37.83101 21.73813,57.8132 10e-6,10e-6 10e-6,2e-5 10e-6,3e-5 1e-5,1e-5 1e-5,2e-5 1e-5,3e-5 3.04172,11.89315 5.2232,24.01849 6.23066,36.25304 1.04672,12.71126 0.81383,25.55081 -1.10142,38.16047 -1.98815,13.08962 -5.82846,25.9162 -11.61335,37.82527 -6.34919,13.07079 -15.02997,24.97228 -25.30513,35.24744 -10.9631,10.96309 -23.52189,20.28367 -36.96619,28.0057 -13.40904,7.70178 -27.68626,13.84222 -42.35606,18.73267 -2e-5,0 -4e-5,10e-6 -6e-5,2e-5 -28.43586,9.4796 -58.26134,14.37884 -88.16231,16.47481 -2e-5,10e-6 -4e-5,10e-6 -6e-5,10e-6 -23.8152,1.66938 -47.74889,1.55602 -71.56279,-0.13179 -2e-5,0 -4e-5,0 -6e-5,0 -7.21641,-0.51147 -14.42323,-1.16815 -21.60675,-2.02556 l -7.91715,-1.05586 z"
       id="path2848"
       inkscape:path-effect="#path-effect2850"
       inkscape:original-d="m 209.68254,328.73784 380,31.42858 c 0,0 91.42857,140 2.85714,228.57143 -88.57143,88.57142 -268.57143,60 -268.57143,60 L 209.68254,328.73784 z" />
  </g>
</svg>
