<?xml version="1.0" encoding="UTF-8" standalone="no"?>
<!-- Created with Inkscape (http://www.inkscape.org/) -->

<svg
   xmlns:dc="http://purl.org/dc/elements/1.1/"
   xmlns:cc="http://creativecommons.org/ns#"
   xmlns:rdf="http://www.w3.org/1999/02/22-rdf-syntax-ns#"
   xmlns:svg="http://www.w3.org/2000/svg"
   xmlns="http://www.w3.org/2000/svg"
   xmlns:xlink="http://www.w3.org/1999/xlink"
   xmlns:sodipodi="http://sodipodi.sourceforge.net/DTD/sodipodi-0.dtd"
   xmlns:inkscape="http://www.inkscape.org/namespaces/inkscape"
   width="400"
   height="300"
   id="svg2"
   version="1.1"
   inkscape:version="0.48.0 r9654"
   sodipodi:docname="snowdonkey.svg"
   inkscape:export-filename="C:\Users\ian.overgard\Desktop\snowdonkey.png"
   inkscape:export-xdpi="90"
   inkscape:export-ydpi="90">
  <defs
     id="defs4">
    <linearGradient
       id="linearGradient4260">
      <stop
         style="stop-color:#393939;stop-opacity:1;"
         offset="0"
         id="stop4262" />
      <stop
         style="stop-color:#656565;stop-opacity:1;"
         offset="1"
         id="stop4264" />
    </linearGradient>
    <linearGradient
       id="linearGradient4139">
      <stop
         style="stop-color:#bbd8fe;stop-opacity:1;"
         offset="0"
         id="stop4141" />
      <stop
         style="stop-color:#ffffff;stop-opacity:1;"
         offset="1"
         id="stop4143" />
    </linearGradient>
    <linearGradient
       inkscape:collect="always"
       id="linearGradient4069">
      <stop
         style="stop-color:#fafafa;stop-opacity:1;"
         offset="0"
         id="stop4071" />
      <stop
         style="stop-color:#fafafa;stop-opacity:0;"
         offset="1"
         id="stop4073" />
    </linearGradient>
    <linearGradient
       inkscape:collect="always"
       id="linearGradient4051">
      <stop
         style="stop-color:#5a5a5a;stop-opacity:1;"
         offset="0"
         id="stop4053" />
      <stop
         style="stop-color:#5a5a5a;stop-opacity:0;"
         offset="1"
         id="stop4055" />
    </linearGradient>
    <linearGradient
       inkscape:collect="always"
       id="linearGradient4021">
      <stop
         style="stop-color:#bababa;stop-opacity:1;"
         offset="0"
         id="stop4023" />
      <stop
         style="stop-color:#bababa;stop-opacity:0;"
         offset="1"
         id="stop4025" />
    </linearGradient>
    <linearGradient
       id="linearGradient4013">
      <stop
         style="stop-color:#bababa;stop-opacity:1;"
         offset="0"
         id="stop4015" />
      <stop
         style="stop-color:#bababa;stop-opacity:0;"
         offset="1"
         id="stop4017" />
    </linearGradient>
    <linearGradient
       id="linearGradient3895">
      <stop
         style="stop-color:#121212;stop-opacity:0.8018018;"
         offset="0"
         id="stop3897" />
      <stop
         style="stop-color:#292929;stop-opacity:0.34234235;"
         offset="1"
         id="stop3899" />
    </linearGradient>
    <linearGradient
       id="linearGradient3837">
      <stop
         style="stop-color:#000000;stop-opacity:1;"
         offset="0"
         id="stop3839" />
      <stop
         style="stop-color:#000000;stop-opacity:1;"
         offset="1"
         id="stop3841" />
    </linearGradient>
    <linearGradient
       id="linearGradient3823">
      <stop
         style="stop-color:#b7b7b7;stop-opacity:1;"
         offset="0"
         id="stop3825" />
      <stop
         style="stop-color:#f8f8f8;stop-opacity:1;"
         offset="1"
         id="stop3827" />
    </linearGradient>
    <linearGradient
       id="linearGradient3755">
      <stop
         style="stop-color:#2c2c2c;stop-opacity:1;"
         offset="0"
         id="stop3757" />
      <stop
         style="stop-color:#ffffff;stop-opacity:0;"
         offset="1"
         id="stop3759" />
    </linearGradient>
    <radialGradient
       inkscape:collect="always"
       xlink:href="#linearGradient3823"
       id="radialGradient3835"
       gradientUnits="userSpaceOnUse"
       gradientTransform="matrix(0.88127409,-0.35106498,0.31827819,0.84952759,-8.8693734,828.69488)"
       cx="146.07143"
       cy="106.96429"
       fx="146.07143"
       fy="106.96429"
       r="5.7142859" />
    <radialGradient
       inkscape:collect="always"
       xlink:href="#linearGradient3837"
       id="radialGradient3843"
       cx="145.89285"
       cy="106.60714"
       fx="145.89285"
       fy="106.60714"
       r="2.3214285"
       gradientTransform="matrix(1,0,0,1.1538462,0,-16.401102)"
       gradientUnits="userSpaceOnUse" />
    <radialGradient
       inkscape:collect="always"
       xlink:href="#linearGradient3823-3"
       id="radialGradient3835-2"
       gradientUnits="userSpaceOnUse"
       gradientTransform="matrix(0.93998345,-0.12775666,0.10361079,0.90125631,-2.5775363,781.69568)"
       cx="146.07143"
       cy="106.96429"
       fx="146.07143"
       fy="106.96429"
       r="5.7142859" />
    <linearGradient
       id="linearGradient3823-3">
      <stop
         style="stop-color:#b7b7b7;stop-opacity:1;"
         offset="0"
         id="stop3825-3" />
      <stop
         style="stop-color:#f8f8f8;stop-opacity:1;"
         offset="1"
         id="stop3827-2" />
    </linearGradient>
    <linearGradient
       id="linearGradient3837-2">
      <stop
         style="stop-color:#000000;stop-opacity:1;"
         offset="0"
         id="stop3839-1" />
      <stop
         style="stop-color:#000000;stop-opacity:1;"
         offset="1"
         id="stop3841-8" />
    </linearGradient>
    <radialGradient
       inkscape:collect="always"
       xlink:href="#linearGradient3823-6"
       id="radialGradient3835-1"
       gradientUnits="userSpaceOnUse"
       gradientTransform="matrix(0.88127409,-0.35106498,0.31827819,0.84952759,-17.440802,821.01631)"
       cx="146.07143"
       cy="106.96429"
       fx="146.07143"
       fy="106.96429"
       r="5.7142859" />
    <linearGradient
       id="linearGradient3823-6">
      <stop
         style="stop-color:#b7b7b7;stop-opacity:1;"
         offset="0"
         id="stop3825-5" />
      <stop
         style="stop-color:#f8f8f8;stop-opacity:1;"
         offset="1"
         id="stop3827-0" />
    </linearGradient>
    <radialGradient
       r="5.7142859"
       fy="106.96429"
       fx="146.07143"
       cy="106.96429"
       cx="146.07143"
       gradientTransform="matrix(-0.88127409,-0.35106498,-0.31827819,0.84952759,344.10267,829.01708)"
       gradientUnits="userSpaceOnUse"
       id="radialGradient3920"
       xlink:href="#linearGradient3823-6"
       inkscape:collect="always" />
    <radialGradient
       inkscape:collect="always"
       xlink:href="#linearGradient3837-3"
       id="radialGradient3843-2"
       cx="145.89285"
       cy="106.60714"
       fx="145.89285"
       fy="106.60714"
       r="2.3214285"
       gradientTransform="matrix(1,0,0,1.1538462,0,-16.401102)"
       gradientUnits="userSpaceOnUse" />
    <linearGradient
       id="linearGradient3837-3">
      <stop
         style="stop-color:#000000;stop-opacity:1;"
         offset="0"
         id="stop3839-16" />
      <stop
         style="stop-color:#000000;stop-opacity:1;"
         offset="1"
         id="stop3841-6" />
    </linearGradient>
    <radialGradient
       r="2.3214285"
       fy="106.60714"
       fx="145.89285"
       cy="106.60714"
       cx="145.89285"
       gradientTransform="matrix(1,0,0,1.1538462,0,-16.401102)"
       gradientUnits="userSpaceOnUse"
       id="radialGradient3954"
       xlink:href="#linearGradient3837-3"
       inkscape:collect="always" />
    <radialGradient
       inkscape:collect="always"
       xlink:href="#linearGradient3895"
       id="radialGradient3974"
       gradientUnits="userSpaceOnUse"
       gradientTransform="matrix(0.63333408,-2.7614414,1.9886477,0.58823661,-265.6889,1282.5852)"
       cx="167.43733"
       cy="164.56189"
       fx="167.43733"
       fy="164.56189"
       r="7.5" />
    <linearGradient
       inkscape:collect="always"
       xlink:href="#linearGradient4013"
       id="linearGradient4019"
       x1="179.79619"
       y1="840.62136"
       x2="192.61233"
       y2="840.62136"
       gradientUnits="userSpaceOnUse" />
    <linearGradient
       inkscape:collect="always"
       xlink:href="#linearGradient4021"
       id="linearGradient4027"
       x1="143.59193"
       y1="839.86217"
       x2="156.40807"
       y2="839.86217"
       gradientUnits="userSpaceOnUse" />
    <linearGradient
       inkscape:collect="always"
       xlink:href="#linearGradient4069"
       id="linearGradient4101"
       gradientUnits="userSpaceOnUse"
       gradientTransform="translate(0,752.36218)"
       x1="170.90987"
       y1="174.10715"
       x2="187.84013"
       y2="217.50002" />
    <linearGradient
       inkscape:collect="always"
       xlink:href="#linearGradient4051"
       id="linearGradient4119"
       gradientUnits="userSpaceOnUse"
       gradientTransform="matrix(1.4199726,0,0,1.1442025,-81.525706,725.38026)"
       x1="183.41675"
       y1="193.92213"
       x2="194.62151"
       y2="193.92213" />
    <radialGradient
       inkscape:collect="always"
       xlink:href="#linearGradient4139"
       id="radialGradient4161"
       cx="200.33113"
       cy="221.19205"
       fx="200.33113"
       fy="221.19205"
       r="201.49338"
       gradientTransform="matrix(1.1067549,-0.24430727,0.13104432,0.63301781,-50.410143,882.15077)"
       gradientUnits="userSpaceOnUse" />
    <radialGradient
       inkscape:collect="always"
       xlink:href="#linearGradient4139-4"
       id="radialGradient4161-6"
       cx="200.33113"
       cy="221.19205"
       fx="200.33113"
       fy="221.19205"
       r="201.49338"
       gradientTransform="matrix(1.0820031,-0.23129814,0.12811362,0.59931019,-44.765484,134.96562)"
       gradientUnits="userSpaceOnUse" />
    <linearGradient
       id="linearGradient4139-4">
      <stop
         style="stop-color:#bbd8fe;stop-opacity:1;"
         offset="0"
         id="stop4141-6" />
      <stop
         style="stop-color:#ffffff;stop-opacity:0.990991;"
         offset="1"
         id="stop4143-0" />
    </linearGradient>
    <radialGradient
       r="201.49338"
       fy="221.19205"
       fx="200.33113"
       cy="221.19205"
       cx="200.33113"
       gradientTransform="matrix(-1.0979149,-0.23129814,-0.12999764,0.59931019,446.40744,887.15156)"
       gradientUnits="userSpaceOnUse"
       id="radialGradient4241"
       xlink:href="#linearGradient4139-4"
       inkscape:collect="always" />
    <linearGradient
       inkscape:collect="always"
       xlink:href="#linearGradient4260"
       id="linearGradient4266"
       x1="155.91331"
       y1="165.00062"
       x2="240.50383"
       y2="165.00062"
       gradientUnits="userSpaceOnUse" />
  </defs>
  <sodipodi:namedview
     id="base"
     pagecolor="#ffffff"
     bordercolor="#666666"
     borderopacity="1.0"
     inkscape:pageopacity="0.0"
     inkscape:pageshadow="2"
     inkscape:zoom="2.1354625"
     inkscape:cx="169.2149"
     inkscape:cy="138.72388"
     inkscape:document-units="px"
     inkscape:current-layer="layer1"
     showgrid="false"
     inkscape:window-width="1532"
     inkscape:window-height="1178"
     inkscape:window-x="60"
     inkscape:window-y="-8"
     inkscape:window-maximized="1" />
  <metadata
     id="metadata7">
    <rdf:RDF>
      <cc:Work
         rdf:about="">
        <dc:format>image/svg+xml</dc:format>
        <dc:type
           rdf:resource="http://purl.org/dc/dcmitype/StillImage" />
        <dc:title></dc:title>
      </cc:Work>
    </rdf:RDF>
  </metadata>
  <g
     inkscape:label="Layer 1"
     inkscape:groupmode="layer"
     id="layer1"
     transform="translate(0,-752.36218)">
    <path
       style="opacity:0.3539823;fill:url(#radialGradient4241);fill-opacity:1;stroke:none"
       d="m 330.94495,962.64313 c -74.72024,48.59017 0.94664,21.52834 -96.95098,-5.15918 -23.62329,-3.54259 -27.63213,-10.85874 -30.07159,-17.8808 -36.61324,-40.48409 -78.2156,-36.24501 -111.550442,-25.16556 -77.394269,-6.10831 -72.415341,9.43122 -101.9745856,15.89404 l 3.359955,122.51657 407.8983226,0 z"
       id="rect4137-5"
       inkscape:connector-curvature="0"
       sodipodi:nodetypes="cccccccc" />
    <path
       style="fill:url(#linearGradient4266);fill-opacity:1;stroke:#3d3d3d;stroke-width:1px;stroke-linecap:butt;stroke-linejoin:miter;stroke-opacity:1"
       d="m 187.32143,143.39286 c 0,0 27.85714,-20 37.32143,-20 9.46428,0 15.53571,7.32143 15.35714,14.10714 -0.17857,6.78571 0,20.89286 0,20.89286 -7.07292,-3.35033 -44.29789,24.30814 -46.25,30 -1.94739,5.6781 0.35714,10.53571 -13.03571,14.46428 -13.39286,3.92857 -15.71429,3.75 -15.71429,3.75 0,0 0.17857,-16.96428 -5.71429,-22.14285 -5.89285,-5.17858 -0.89285,-14.10715 -0.89285,-14.10715 z"
       id="path4031"
       inkscape:connector-curvature="0"
       transform="translate(0,752.36218)"
       sodipodi:nodetypes="csscsscscc" />
    <path
       style="fill:url(#linearGradient4101);fill-opacity:1;stroke:#000000;stroke-width:1px;stroke-linecap:butt;stroke-linejoin:miter;stroke-opacity:1"
       d="m 165,926.64789 c -0.49861,1.87162 1.66988,2.702 1.25053,4.62201 0.0373,1.65165 1.24932,2.94035 1.23734,4.59262 -0.45384,1.81194 -2.19685,2.70194 -3.52543,3.78417 -1.01457,0.97602 -1.96015,1.98462 -0.75527,3.01212 0.55341,1.78294 1.02641,3.61081 0.88596,5.50114 0.13085,1.57682 0.33369,3.09107 0.3711,4.64892 0.0376,2.11214 -0.0741,4.2523 0.0544,6.34728 2.03808,0.33613 3.91508,-0.46869 5.73288,-1.20875 1.67336,-0.57474 3.44039,-0.31569 4.92419,-1.45089 1.54186,-0.83159 3.4621,-0.50486 5.01374,-1.5282 1.48265,-0.54053 2.88375,-1.33404 4.34889,-1.88359 1.15734,-0.61789 2.67967,-1.34475 3.64918,-1.80977 2.0501,-0.36264 2.12682,-2.84995 3.00613,-4.3369 0.50033,-1.6391 1.32761,-3.22342 2.18609,-4.66144 0.87685,-1.42929 1.25057,-3.62185 -0.80907,-4.34237 -1.13729,-1.21853 -2.90466,-1.82908 -4.54748,-2.19728 -1.891,-0.31994 -3.70328,-0.71624 -5.64993,-0.94163 -1.94548,-0.35653 -4.24138,0.36675 -5.69599,-1.24507 -1.12904,-1.62035 -1.25149,-3.96557 -0.52995,-5.75752 0.55271,-1.6479 1.39713,-3.1564 1.67453,-4.88941 0.014,-1.96982 -2.90647,-0.0277 -4.04805,-0.2055 -1.92902,-0.16444 -3.79722,0.37149 -5.34485,1.5378 -0.96099,1.03991 -2.84019,1.03317 -3.4289,2.41226 z"
       id="path4037"
       inkscape:connector-curvature="0" />
    <path
       style="fill:#393939;fill-opacity:1;stroke:#000000;stroke-width:0.68444026px;stroke-linecap:butt;stroke-linejoin:miter;stroke-opacity:1"
       d="m 184.94001,859.71249 c 0,0 11.17314,-23.74448 10.61448,-30.37583 -0.55865,-6.63134 2.79329,-17.9688 -3.63127,-7.70091 -6.42455,10.26788 -10.33515,11.33746 -10.33515,11.33746 0,0 -3.9106,0.64174 -4.18993,9.62614 -0.27933,8.9844 -0.83798,11.9792 -0.83798,11.9792 z"
       id="path3803-0"
       inkscape:connector-curvature="0" />
    <path
       style="fill:#393939;fill-opacity:1;stroke:#000000;stroke-width:0.68444026px;stroke-linecap:butt;stroke-linejoin:miter;stroke-opacity:1"
       d="m 150.88506,860.01995 c 0,0 -11.17314,-23.74448 -10.61448,-30.37583 0.55865,-6.63134 -2.79329,-17.9688 3.63127,-7.70091 6.42455,10.26788 10.33515,11.33746 10.33515,11.33746 0,0 3.9106,0.64174 4.18993,9.62614 0.27933,8.9844 0.83798,11.9792 0.83798,11.9792 z"
       id="path3803"
       inkscape:connector-curvature="0" />
    <path
       style="fill:#000000;fill-opacity:1;stroke:none"
       d="m 190.43567,884.12899 c -4.97627,21.48574 -11.80782,39.64804 -22.68066,39.66176 -10.56698,0.0134 -15.75732,-19.22043 -20.52061,-41.43527 -2.37671,-11.0844 0.67681,-7.85474 -0.67234,-15.43366 -1.5169,-8.52118 17.68639,-16.16678 23.35301,-16.16678 5.66661,0 19.44937,9.77203 19.10038,16.81169 -0.47162,9.51364 3.97437,5.53429 1.42022,16.56226 z"
       id="path2985"
       inkscape:connector-curvature="0"
       sodipodi:nodetypes="sssssss" />
    <path
       transform="matrix(1.423077,0,0,1.248,-69.519231,714.13075)"
       style="fill:#ffffff;fill-opacity:1;stroke:#000000;stroke-opacity:1"
       d="M 176.21622,147.96474 C 179.33965,159.76683 174.12111,170 166.42857,170 c -7.69253,0 -12.08018,-11.26351 -8.15637,-22.75069 4.01544,-11.75544 1.21674,-13.73625 8.90927,-13.73625 7.69254,0 5.7722,2.1239 9.03475,14.45168 z"
       id="path3767"
       inkscape:connector-curvature="0"
       sodipodi:nodetypes="sssss" />
    <path
       style="fill:url(#radialGradient3835);fill-opacity:1;stroke:none"
       d="m 158.00773,867.26173 c 3.69242,5.37839 -0.5548,4.16789 -2.63735,6.91158 -11.88132,15.65326 -5.28015,0.49182 -6.30893,-2.6986 -1.07773,-3.3422 -1.19437,-6.91103 1.70667,-7.63329 2.90103,-0.72227 5.36315,0.68706 7.23961,3.42031 z"
       id="path3769"
       inkscape:connector-curvature="0"
       sodipodi:nodetypes="sssss" />
    <path
       sodipodi:type="arc"
       style="fill:url(#radialGradient3843);fill-opacity:1;stroke:none"
       id="path3773"
       sodipodi:cx="145.89285"
       sodipodi:cy="106.60714"
       sodipodi:rx="2.3214285"
       sodipodi:ry="2.6785715"
       d="m 148.21428,106.60714 c 0,1.47933 -1.03934,2.67857 -2.32143,2.67857 -1.28209,0 -2.32143,-1.19924 -2.32143,-2.67857 0,-1.47933 1.03934,-2.67857 2.32143,-2.67857 1.28209,0 2.32143,1.19924 2.32143,2.67857 z"
       transform="matrix(0.48135269,-0.92094691,0.84381566,0.84882353,-5.7630474,913.68645)" />
    <path
       style="fill:#000000;fill-opacity:1;stroke:none"
       d="m 160.66988,908.32587 c 0.23535,3.1412 2.55938,5.94521 0.64139,6.04157 -1.91799,0.0964 -3.66361,-2.37198 -3.89894,-5.51317 -0.23534,-3.14121 1.1287,-5.76574 3.04671,-5.8621 1.91799,-0.0964 -0.0245,2.1925 0.21084,5.3337 z"
       id="path3779"
       inkscape:connector-curvature="0"
       sodipodi:nodetypes="sssss" />
    <path
       style="fill:#000000;fill-opacity:1;stroke:none"
       inkscape:transform-center-y="-2.8491655"
       d="m 177.8175,910.33063 c -1.37729,2.93805 -1.95989,5.47324 -3.75385,4.90933 -1.79396,-0.5639 -0.6406,-3.19932 0.73667,-6.13738 1.37728,-2.93808 0.2202,-6.08379 2.01416,-5.51988 1.79396,0.56391 2.38028,3.80984 1.00302,6.74793 z"
       id="path3779-8"
       inkscape:connector-curvature="0"
       sodipodi:nodetypes="sssss" />
    <path
       style="fill:url(#radialGradient3920);fill-opacity:1;stroke:none"
       d="m 177.22558,867.58393 c -3.69242,5.37839 0.5548,4.16789 2.63735,6.91158 11.88132,15.65326 5.28015,0.49182 6.30893,-2.6986 1.07773,-3.3422 1.19437,-6.91103 -1.70667,-7.63329 -2.90103,-0.72227 -5.36315,0.68706 -7.23961,3.42031 z"
       id="path3769-8"
       inkscape:connector-curvature="0"
       sodipodi:nodetypes="sssss" />
    <path
       sodipodi:type="arc"
       style="fill:url(#radialGradient3954);fill-opacity:1;stroke:none"
       id="path3773-7"
       sodipodi:cx="145.89285"
       sodipodi:cy="106.60714"
       sodipodi:rx="2.3214285"
       sodipodi:ry="2.6785715"
       d="m 148.21428,106.60714 c 0,1.47933 -1.03934,2.67857 -2.32143,2.67857 -1.28209,0 -2.32143,-1.19924 -2.32143,-2.67857 0,-1.47933 1.03934,-2.67857 2.32143,-2.67857 1.28209,0 2.32143,1.19924 2.32143,2.67857 z"
       transform="matrix(-0.46431092,-0.81555824,-0.81394129,0.75168831,335.67232,909.0681)" />
    <path
       style="fill:url(#radialGradient3974);fill-opacity:1;stroke:none"
       d="m 174.07217,913.15143 c 0,6.61632 -1.27191,6.94427 -6.21316,6.9443 -4.94121,2e-5 -5.54904,2.28304 -6.21314,-6.53727 -0.62127,-8.25156 -5.84533,-10.6936 5.96462,-10.75885 13.39496,-0.074 6.46168,3.7355 6.46168,10.35182 z"
       id="path3777"
       inkscape:connector-curvature="0"
       sodipodi:nodetypes="sssss" />
    <path
       style="fill:url(#linearGradient4019);fill-opacity:1;stroke:#000000;stroke-width:0.38472947000000002px;stroke-linecap:butt;stroke-linejoin:miter;stroke-opacity:1"
       d="m 183.46305,854.06558 c 0,0 7.44289,-14.72178 7.78902,-19.11493 0.3462,-4.39317 2.96614,-11.57431 -1.00253,-5.33009 -3.96867,6.24423 -5.90846,6.64651 -5.90846,6.64651 0,0 -1.90048,0.12161 -2.85741,5.9943 -0.95691,5.87269 -1.49512,7.79462 -1.49512,7.79462 z"
       id="path3803-0-3"
       inkscape:connector-curvature="0" />
    <path
       style="fill:url(#linearGradient4027);fill-opacity:1;stroke:#000000;stroke-width:0.38472947000000002px;stroke-linecap:butt;stroke-linejoin:miter;stroke-opacity:1"
       d="m 152.74121,853.30639 c 0,0 -7.44289,-14.72178 -7.78902,-19.11493 -0.3462,-4.39317 -2.96614,-11.57431 1.00253,-5.33009 3.96867,6.24423 5.90846,6.64651 5.90846,6.64651 0,0 1.90048,0.12161 2.85741,5.9943 0.95691,5.87269 1.49512,7.79462 1.49512,7.79462 z"
       id="path3803-0-3-0"
       inkscape:connector-curvature="0" />
    <path
       style="opacity:0.95;fill:#c2c2c2;fill-opacity:1;stroke:none"
       d="m 164.6645,947.00757 c 0.5486,-0.0359 0.0769,0.98714 0.0642,0.35928 0.5042,0.0496 0.40107,0.84696 0.67951,1.191 0.37994,0.7049 1.19313,1.07914 1.97524,1.05193 0.96919,0.0892 1.92852,0.30611 2.85453,0.59993 0.50109,0.17747 0.81102,0.64553 1.25259,0.92735 0.43183,0.30998 0.74699,0.7411 0.97499,1.21571 0.33551,0.59744 0.72364,1.17026 1.01826,1.78766 0.22856,0.7846 -0.055,1.60975 0.13318,2.39963 -1e-4,0.69027 -1.64304,0.002 -2.17529,0.0984 -0.68124,0.18044 -0.58504,1.4878 -1.2903,1.12859 -0.66548,-0.37991 -1.24225,-0.97757 -2.03747,-1.07236 -0.89693,-0.30059 -1.72455,-0.77778 -2.55125,-1.22577 -0.51309,-0.3447 -1.08731,-0.74445 -1.195,-1.40042 -0.37977,-1.35955 -0.24945,-2.7856 -0.25413,-4.17765 0.0804,-0.60345 0.30756,-1.18202 0.31638,-1.79574 0.0591,-0.36637 0.15119,-0.72622 0.23456,-1.08753 z"
       id="path4039"
       inkscape:connector-curvature="0"
       sodipodi:nodetypes="ccccccccccccccccc" />
    <path
       style="fill:#5a5a5a;fill-opacity:1;stroke:none"
       d="m 164.46429,953.96932 c 0.36962,0.0208 0.74672,0.16654 0.98922,0.45479 0.28014,0.17564 0.6377,0.24202 0.85085,0.51317 0.32084,0.12329 0.66432,0.21093 0.94274,0.42163 0.3769,0.078 0.7843,0.14517 1.08092,0.41174 0.48234,0.23617 0.96881,0.46917 1.41683,0.76737 0.12921,0.33699 0.0479,0.73069 0.24742,1.04461 0.11312,0.46126 -0.25135,0.95103 -0.70899,1.0277 -0.86421,0.37307 -1.82651,0.0367 -2.71609,0.27432 -0.65315,0.0978 -1.33015,0.18483 -1.98047,0.0215 -0.53622,-0.26303 -0.67875,-0.93431 -0.60948,-1.47949 0.0828,-1.08962 0.70291,-2.10463 0.55239,-3.21716 -0.0154,-0.0816 -0.0369,-0.16219 -0.0653,-0.24018 z"
       id="path4041"
       inkscape:connector-curvature="0" />
    <path
       style="fill:url(#linearGradient4119);fill-opacity:1;stroke:none"
       d="m 179.64782,954.83373 c -0.009,-0.97957 -0.0722,-1.98701 0.25044,-2.92666 0.12896,-1.09408 1.08756,-1.8594 1.26614,-2.93752 0.38076,-0.816 1.00705,-1.50009 1.58838,-2.17575 0.86628,-1.08663 2.11429,-1.76784 3.06599,-2.76973 1.03503,-0.47492 1.73905,-1.42675 2.76668,-1.90974 1.21148,-0.68078 2.43481,-1.34637 3.64601,-2.02413 0.50548,-0.20992 0.48267,-0.27239 0.86445,-0.12352 0.36768,0.0853 0.43227,-0.42153 0.37066,-0.34605 0.7694,0.61935 0.25896,1.70161 0.6552,2.4886 0.19255,1.06961 -0.29332,2.06871 -0.87388,2.92342 -0.62442,0.75244 -1.12266,1.57404 -1.62147,2.39589 -0.42125,1.20486 -1.20874,2.25342 -2.13469,3.11735 -0.68144,0.56097 -1.25914,1.24968 -1.92316,1.78022 -0.44527,0.73843 -1.2874,0.85547 -1.95718,1.30772 -1.09399,0.48799 -2.21461,0.92389 -3.34396,1.32348 -0.85673,0.28087 -1.75688,-0.0404 -2.61961,-0.12358 z"
       id="path4049"
       inkscape:connector-curvature="0" />
    <path
       style="fill:url(#radialGradient4161);fill-opacity:1;stroke:none"
       d="M -0.14690435,926.35459 C 75.174947,977.67761 65.027737,984.62744 163.71358,956.43891 c 23.81349,-3.74184 27.85462,-11.46948 30.31372,-18.88648 36.90803,-42.76109 78.84534,-38.28358 112.44859,-26.58098 74.48453,2.6068 77.73525,81.67767 93.32096,140.10775 l -400.41203686,1.8732 z"
       id="rect4137"
       inkscape:connector-curvature="0"
       sodipodi:nodetypes="ccccccc" />
  </g>
</svg>
