<?xml version="1.0" encoding="UTF-8" standalone="no"?>
<!-- Created with Inkscape (http://www.inkscape.org/) -->

<svg
   xmlns:dc="http://purl.org/dc/elements/1.1/"
   xmlns:cc="http://creativecommons.org/ns#"
   xmlns:rdf="http://www.w3.org/1999/02/22-rdf-syntax-ns#"
   xmlns:svg="http://www.w3.org/2000/svg"
   xmlns="http://www.w3.org/2000/svg"
   xmlns:xlink="http://www.w3.org/1999/xlink"
   xmlns:sodipodi="http://sodipodi.sourceforge.net/DTD/sodipodi-0.dtd"
   xmlns:inkscape="http://www.inkscape.org/namespaces/inkscape"
   width="800px"
   height="600px"
   id="svg5830"
   version="1.1"
   inkscape:version="0.47 r22583"
   sodipodi:docname="spiral.svg">
  <defs
     id="defs5832">
    <inkscape:path-effect
       effect="skeletal"
       id="path-effect7449"
       is_visible="true"
       pattern="m 0,40.906485 c 1.499899,0.912816 3.0003256,1.825245 4.5013128,2.737267 1.989989,-3.632922 3.1873396,-7.536087 3.5789243,-11.433571 0.3559842,-3.546825 0.044597,-7.07972 -0.8668327,-10.400686 0.066998,3.426807 -0.505196,6.795996 -1.637875,9.913929 C 4.3313543,35.14919 2.4075173,38.279007 0,40.906485 z m 29.67328,0.116148 c 1.504122,0.90679 3.008914,1.813059 4.514408,2.718786 1.975634,-3.641457 3.156307,-7.54996 3.53104,-11.44926 0.340648,-3.548476 0.01385,-7.080115 -0.911497,-10.397298 0.08168,3.426636 -0.475846,6.798401 -1.595337,9.921242 -1.229684,3.431158 -3.140821,6.569183 -5.538614,9.20653 z m 29.683651,-0.02009 c 1.509226,0.899058 3.019263,1.797459 4.530146,2.695183 1.957159,-3.65188 3.1168,-7.566731 3.470395,-11.467979 0.321412,-3.550246 -0.02462,-7.080017 -0.967453,-10.392167 0.100093,3.426129 -0.439035,6.800838 -1.541846,9.929585 -1.211358,3.437646 -3.106229,6.585739 -5.491242,9.235378 z m 29.691917,-0.188707 c 1.51521,0.889618 3.031374,1.778445 4.548525,2.66646 1.934564,-3.664196 3.068822,-7.586404 3.396992,-11.489729 0.298275,-3.552134 -0.07084,-7.07943 -1.0347,-10.385295 0.122244,3.425287 -0.394766,6.803308 -1.477405,9.93896 -1.189195,3.44523 -3.064235,6.60525 -5.433412,9.269604 z m 29.698082,-0.3897 c 1.52207,0.878471 3.04524,1.756017 4.56954,2.632616 1.90785,-3.678404 3.01237,-7.608977 3.31083,-11.514509 0.27124,-3.55414 -0.12478,-7.078352 -1.11324,-10.376683 0.14814,3.42411 -0.34303,6.805813 -1.40201,9.949367 -1.16319,3.45391 -3.01484,6.627716 -5.36512,9.309209 z m 29.70213,-0.623072 c 1.52982,0.865618 3.06088,1.730176 4.59321,2.593653 1.87702,-3.694502 2.94745,-7.63445 3.21191,-11.542321 0.2403,-3.556264 -0.18646,-7.076782 -1.20307,-10.366328 0.17776,3.422598 -0.28385,6.808349 -1.31567,9.960804 -1.13336,3.463687 -2.95804,6.653138 -5.28638,9.354192 z m 29.70409,-0.888819 c 1.53845,0.851058 3.07828,1.700921 4.61952,2.549568 1.84206,-3.712491 2.87404,-7.662823 3.10022,-11.573162 0.20547,-3.558508 -0.25588,-7.074722 -1.30419,-10.354233 0.21113,3.420751 -0.21719,6.810919 -1.21837,9.973273 -1.09969,3.47456 -2.89384,6.681515 -5.19718,9.404554 z m 29.69991,-1.184133 c 1.54693,0.835889 3.09545,1.670668 4.64583,2.504141 1.80547,-3.731461 2.79797,-7.693151 2.98439,-11.606627 0.16928,-3.561358 -0.32806,-7.073631 -1.40942,-10.343123 0.24581,3.419309 -0.14801,6.81458 -1.11747,9.98764 -1.06484,3.48632 -2.82756,6.711763 -5.10333,9.457969 z m 29.7247,-1.516471 c 1.56242,0.81394 3.12752,1.625567 4.69554,2.434686 1.75511,-3.759533 2.68425,-7.737127 2.80683,-11.652978 0.11118,-3.563513 -0.44423,-7.066838 -1.57485,-10.318908 0.30029,3.414904 -0.0372,6.815901 -0.957,10.003658 -1.01028,3.502461 -2.72666,6.754838 -4.97052,9.533542 z m 29.76343,-2.070663 c 1.58398,0.777394 3.1717,1.551274 4.76342,2.321442 1.66968,-3.800285 2.49908,-7.79907 2.52258,-11.715425 0.021,-3.563963 -0.62347,-7.050718 -1.83164,-10.272676 0.38517,3.40519 0.13479,6.812379 -0.70605,10.02062 -0.92353,3.52496 -2.56305,6.817068 -4.74831,9.646039 z m 29.76273,-2.888832 c 1.61158,0.726252 3.22797,1.447788 4.84944,2.164411 1.54918,-3.853716 2.24245,-7.87898 2.13167,-11.793969 -0.10119,-3.562708 -0.86579,-7.025271 -2.17982,-10.204429 0.50046,3.390167 0.36797,6.804016 -0.36461,10.038528 -0.80457,3.553815 -2.33674,6.898453 -4.43668,9.795459 z m 29.772,-3.920685 c 1.6692,0.652015 3.35447,1.289159 5.06008,1.906816 1.40149,-3.951913 1.85389,-8.023316 1.48958,-11.924923 -0.33189,-3.550506 -1.32829,-6.95438 -2.80546,-10.0571131 0.70608,3.3561591 0.80364,6.7707921 0.25714,10.0447021 -0.60012,3.597083 -1.98538,7.030604 -4.00134,10.030518 z m 30.29458,-7.198205 c 1.88233,0.309376 3.95835,0.463744 6.32348,0.287496 0.34,-1.621266 0.45857,-3.207841 0.35181,-4.714972 -0.0658,-0.966194 -0.15879,-1.973261 -0.36619,-2.922727 -0.2074,-0.949467 -0.52685,-1.842584 -0.95866,-2.653603 -0.61432,-0.8930667 -0.92216,-1.4223475 -1.14638,-1.7224139 -0.0348,-0.046582 -0.0674,-0.087948 -0.0983,-0.1249028 0,-1e-7 0,-2e-7 0,-3e-7 -0.0566,-0.096471 0.0109,-0.068886 0.0927,-0.017112 0,1e-7 0,1e-7 0,1e-7 0.0402,0.025445 0.0839,0.056758 0.11819,0.082248 0.0717,0.056071 0.10233,0.083926 -0.0272,-0.033579 -0.0676,-0.046762 -0.16812,-0.1297258 -0.31838,-0.2551521 0,-2e-7 0,-5e-7 0,-7e-7 0,-2e-7 0,-4e-7 0,-7e-7 -0.30748,-0.2566638 -0.8233,-0.691341 -1.65446,-1.4014374 0,-5e-7 0,-9e-7 -10e-6,-1.3e-6 -0.65734,-0.7637125 -1.6381,-2.0262023 -3.38767,-3.8439047 0,-4e-7 0,-8e-7 0,-1.2e-6 -0.55671,-0.7618075 -1.03528,-1.5777314 -1.49156,-2.39179454 0.71085,1.02077624 1.45739,2.00388154 2.12042,3.02499854 0.66302,1.021117 1.23151,2.0887816 1.63901,3.2251315 0.30745,0.8578448 0.54552,1.7348018 0.70138,2.6275597 0.31203,1.7863658 0.28471,3.6422298 -0.0639,5.4847828 -0.34861,1.842553 -1.01695,3.668571 -1.83437,5.349386 z"
       copytype="single_stretched"
       prop_scale="1"
       scale_y_rel="false"
       spacing="0"
       normal_offset="0"
       tang_offset="0"
       prop_units="false"
       vertical_pattern="false"
       fuse_tolerance="0" />
    <inkscape:path-effect
       effect="skeletal"
       id="path-effect7433"
       is_visible="true"
       pattern="m 0,40.906485 c 1.499899,0.912816 3.0003256,1.825245 4.5013128,2.737267 1.989989,-3.632922 3.1873396,-7.536087 3.5789243,-11.433571 0.3559842,-3.546825 0.044597,-7.07972 -0.8668327,-10.400686 0.066998,3.426807 -0.505196,6.795996 -1.637875,9.913929 C 4.3313543,35.14919 2.4075173,38.279007 0,40.906485 z m 29.67328,0.116148 c 1.504122,0.90679 3.008914,1.813059 4.514408,2.718786 1.975634,-3.641457 3.156307,-7.54996 3.53104,-11.44926 0.340648,-3.548476 0.01385,-7.080115 -0.911497,-10.397298 0.08168,3.426636 -0.475846,6.798401 -1.595337,9.921242 -1.229684,3.431158 -3.140821,6.569183 -5.538614,9.20653 z m 29.683651,-0.02009 c 1.509226,0.899058 3.019263,1.797459 4.530146,2.695183 1.957159,-3.65188 3.1168,-7.566731 3.470395,-11.467979 0.321412,-3.550246 -0.02462,-7.080017 -0.967453,-10.392167 0.100093,3.426129 -0.439035,6.800838 -1.541846,9.929585 -1.211358,3.437646 -3.106229,6.585739 -5.491242,9.235378 z m 29.691917,-0.188707 c 1.51521,0.889618 3.031374,1.778445 4.548525,2.66646 1.934564,-3.664196 3.068822,-7.586404 3.396992,-11.489729 0.298275,-3.552134 -0.07084,-7.07943 -1.0347,-10.385295 0.122244,3.425287 -0.394766,6.803308 -1.477405,9.93896 -1.189195,3.44523 -3.064235,6.60525 -5.433412,9.269604 z m 29.698082,-0.3897 c 1.52207,0.878471 3.04524,1.756017 4.56954,2.632616 1.90785,-3.678404 3.01237,-7.608977 3.31083,-11.514509 0.27124,-3.55414 -0.12478,-7.078352 -1.11324,-10.376683 0.14814,3.42411 -0.34303,6.805813 -1.40201,9.949367 -1.16319,3.45391 -3.01484,6.627716 -5.36512,9.309209 z m 29.70213,-0.623072 c 1.52982,0.865618 3.06088,1.730176 4.59321,2.593653 1.87702,-3.694502 2.94745,-7.63445 3.21191,-11.542321 0.2403,-3.556264 -0.18646,-7.076782 -1.20307,-10.366328 0.17776,3.422598 -0.28385,6.808349 -1.31567,9.960804 -1.13336,3.463687 -2.95804,6.653138 -5.28638,9.354192 z m 29.70409,-0.888819 c 1.53845,0.851058 3.07828,1.700921 4.61952,2.549568 1.84206,-3.712491 2.87404,-7.662823 3.10022,-11.573162 0.20547,-3.558508 -0.25588,-7.074722 -1.30419,-10.354233 0.21113,3.420751 -0.21719,6.810919 -1.21837,9.973273 -1.09969,3.47456 -2.89384,6.681515 -5.19718,9.404554 z m 29.69991,-1.184133 c 1.54693,0.835889 3.09545,1.670668 4.64583,2.504141 1.80547,-3.731461 2.79797,-7.693151 2.98439,-11.606627 0.16928,-3.561358 -0.32806,-7.073631 -1.40942,-10.343123 0.24581,3.419309 -0.14801,6.81458 -1.11747,9.98764 -1.06484,3.48632 -2.82756,6.711763 -5.10333,9.457969 z m 29.7247,-1.516471 c 1.56242,0.81394 3.12752,1.625567 4.69554,2.434686 1.75511,-3.759533 2.68425,-7.737127 2.80683,-11.652978 0.11118,-3.563513 -0.44423,-7.066838 -1.57485,-10.318908 0.30029,3.414904 -0.0372,6.815901 -0.957,10.003658 -1.01028,3.502461 -2.72666,6.754838 -4.97052,9.533542 z m 29.76343,-2.070663 c 1.58398,0.777394 3.1717,1.551274 4.76342,2.321442 1.66968,-3.800285 2.49908,-7.79907 2.52258,-11.715425 0.021,-3.563963 -0.62347,-7.050718 -1.83164,-10.272676 0.38517,3.40519 0.13479,6.812379 -0.70605,10.02062 -0.92353,3.52496 -2.56305,6.817068 -4.74831,9.646039 z m 29.76273,-2.888832 c 1.61158,0.726252 3.22797,1.447788 4.84944,2.164411 1.54918,-3.853716 2.24245,-7.87898 2.13167,-11.793969 -0.10119,-3.562708 -0.86579,-7.025271 -2.17982,-10.204429 0.50046,3.390167 0.36797,6.804016 -0.36461,10.038528 -0.80457,3.553815 -2.33674,6.898453 -4.43668,9.795459 z m 29.772,-3.920685 c 1.6692,0.652015 3.35447,1.289159 5.06008,1.906816 1.40149,-3.951913 1.85389,-8.023316 1.48958,-11.924923 -0.33189,-3.550506 -1.32829,-6.95438 -2.80546,-10.0571131 0.70608,3.3561591 0.80364,6.7707921 0.25714,10.0447021 -0.60012,3.597083 -1.98538,7.030604 -4.00134,10.030518 z m 30.29458,-7.198205 c 1.88233,0.309376 3.95835,0.463744 6.32348,0.287496 0.34,-1.621266 0.45857,-3.207841 0.35181,-4.714972 -0.0658,-0.966194 -0.15879,-1.973261 -0.36619,-2.922727 -0.2074,-0.949467 -0.52685,-1.842584 -0.95866,-2.653603 -0.61432,-0.8930667 -0.92216,-1.4223475 -1.14638,-1.7224139 -0.0348,-0.046582 -0.0674,-0.087948 -0.0983,-0.1249028 0,-1e-7 0,-2e-7 0,-3e-7 -0.0566,-0.096471 0.0109,-0.068886 0.0927,-0.017112 0,1e-7 0,1e-7 0,1e-7 0.0402,0.025445 0.0839,0.056758 0.11819,0.082248 0.0717,0.056071 0.10233,0.083926 -0.0272,-0.033579 -0.0676,-0.046762 -0.16812,-0.1297258 -0.31838,-0.2551521 0,-2e-7 0,-5e-7 0,-7e-7 0,-2e-7 0,-4e-7 0,-7e-7 -0.30748,-0.2566638 -0.8233,-0.691341 -1.65446,-1.4014374 0,-5e-7 0,-9e-7 -10e-6,-1.3e-6 -0.65734,-0.7637125 -1.6381,-2.0262023 -3.38767,-3.8439047 0,-4e-7 0,-8e-7 0,-1.2e-6 -0.55671,-0.7618075 -1.03528,-1.5777314 -1.49156,-2.39179454 0.71085,1.02077624 1.45739,2.00388154 2.12042,3.02499854 0.66302,1.021117 1.23151,2.0887816 1.63901,3.2251315 0.30745,0.8578448 0.54552,1.7348018 0.70138,2.6275597 0.31203,1.7863658 0.28471,3.6422298 -0.0639,5.4847828 -0.34861,1.842553 -1.01695,3.668571 -1.83437,5.349386 z"
       copytype="single_stretched"
       prop_scale="1"
       scale_y_rel="false"
       spacing="0"
       normal_offset="0"
       tang_offset="0"
       prop_units="false"
       vertical_pattern="false"
       fuse_tolerance="0" />
    <inkscape:path-effect
       effect="skeletal"
       id="path-effect7417"
       is_visible="true"
       pattern="m 0,40.906485 c 1.499899,0.912816 3.0003256,1.825245 4.5013128,2.737267 1.989989,-3.632922 3.1873396,-7.536087 3.5789243,-11.433571 0.3559842,-3.546825 0.044597,-7.07972 -0.8668327,-10.400686 0.066998,3.426807 -0.505196,6.795996 -1.637875,9.913929 C 4.3313543,35.14919 2.4075173,38.279007 0,40.906485 z m 29.67328,0.116148 c 1.504122,0.90679 3.008914,1.813059 4.514408,2.718786 1.975634,-3.641457 3.156307,-7.54996 3.53104,-11.44926 0.340648,-3.548476 0.01385,-7.080115 -0.911497,-10.397298 0.08168,3.426636 -0.475846,6.798401 -1.595337,9.921242 -1.229684,3.431158 -3.140821,6.569183 -5.538614,9.20653 z m 29.683651,-0.02009 c 1.509226,0.899058 3.019263,1.797459 4.530146,2.695183 1.957159,-3.65188 3.1168,-7.566731 3.470395,-11.467979 0.321412,-3.550246 -0.02462,-7.080017 -0.967453,-10.392167 0.100093,3.426129 -0.439035,6.800838 -1.541846,9.929585 -1.211358,3.437646 -3.106229,6.585739 -5.491242,9.235378 z m 29.691917,-0.188707 c 1.51521,0.889618 3.031374,1.778445 4.548525,2.66646 1.934564,-3.664196 3.068822,-7.586404 3.396992,-11.489729 0.298275,-3.552134 -0.07084,-7.07943 -1.0347,-10.385295 0.122244,3.425287 -0.394766,6.803308 -1.477405,9.93896 -1.189195,3.44523 -3.064235,6.60525 -5.433412,9.269604 z m 29.698082,-0.3897 c 1.52207,0.878471 3.04524,1.756017 4.56954,2.632616 1.90785,-3.678404 3.01237,-7.608977 3.31083,-11.514509 0.27124,-3.55414 -0.12478,-7.078352 -1.11324,-10.376683 0.14814,3.42411 -0.34303,6.805813 -1.40201,9.949367 -1.16319,3.45391 -3.01484,6.627716 -5.36512,9.309209 z m 29.70213,-0.623072 c 1.52982,0.865618 3.06088,1.730176 4.59321,2.593653 1.87702,-3.694502 2.94745,-7.63445 3.21191,-11.542321 0.2403,-3.556264 -0.18646,-7.076782 -1.20307,-10.366328 0.17776,3.422598 -0.28385,6.808349 -1.31567,9.960804 -1.13336,3.463687 -2.95804,6.653138 -5.28638,9.354192 z m 29.70409,-0.888819 c 1.53845,0.851058 3.07828,1.700921 4.61952,2.549568 1.84206,-3.712491 2.87404,-7.662823 3.10022,-11.573162 0.20547,-3.558508 -0.25588,-7.074722 -1.30419,-10.354233 0.21113,3.420751 -0.21719,6.810919 -1.21837,9.973273 -1.09969,3.47456 -2.89384,6.681515 -5.19718,9.404554 z m 29.69991,-1.184133 c 1.54693,0.835889 3.09545,1.670668 4.64583,2.504141 1.80547,-3.731461 2.79797,-7.693151 2.98439,-11.606627 0.16928,-3.561358 -0.32806,-7.073631 -1.40942,-10.343123 0.24581,3.419309 -0.14801,6.81458 -1.11747,9.98764 -1.06484,3.48632 -2.82756,6.711763 -5.10333,9.457969 z m 29.7247,-1.516471 c 1.56242,0.81394 3.12752,1.625567 4.69554,2.434686 1.75511,-3.759533 2.68425,-7.737127 2.80683,-11.652978 0.11118,-3.563513 -0.44423,-7.066838 -1.57485,-10.318908 0.30029,3.414904 -0.0372,6.815901 -0.957,10.003658 -1.01028,3.502461 -2.72666,6.754838 -4.97052,9.533542 z m 29.76343,-2.070663 c 1.58398,0.777394 3.1717,1.551274 4.76342,2.321442 1.66968,-3.800285 2.49908,-7.79907 2.52258,-11.715425 0.021,-3.563963 -0.62347,-7.050718 -1.83164,-10.272676 0.38517,3.40519 0.13479,6.812379 -0.70605,10.02062 -0.92353,3.52496 -2.56305,6.817068 -4.74831,9.646039 z m 29.76273,-2.888832 c 1.61158,0.726252 3.22797,1.447788 4.84944,2.164411 1.54918,-3.853716 2.24245,-7.87898 2.13167,-11.793969 -0.10119,-3.562708 -0.86579,-7.025271 -2.17982,-10.204429 0.50046,3.390167 0.36797,6.804016 -0.36461,10.038528 -0.80457,3.553815 -2.33674,6.898453 -4.43668,9.795459 z m 29.772,-3.920685 c 1.6692,0.652015 3.35447,1.289159 5.06008,1.906816 1.40149,-3.951913 1.85389,-8.023316 1.48958,-11.924923 -0.33189,-3.550506 -1.32829,-6.95438 -2.80546,-10.0571131 0.70608,3.3561591 0.80364,6.7707921 0.25714,10.0447021 -0.60012,3.597083 -1.98538,7.030604 -4.00134,10.030518 z m 30.29458,-7.198205 c 1.88233,0.309376 3.95835,0.463744 6.32348,0.287496 0.34,-1.621266 0.45857,-3.207841 0.35181,-4.714972 -0.0658,-0.966194 -0.15879,-1.973261 -0.36619,-2.922727 -0.2074,-0.949467 -0.52685,-1.842584 -0.95866,-2.653603 -0.61432,-0.8930667 -0.92216,-1.4223475 -1.14638,-1.7224139 -0.0348,-0.046582 -0.0674,-0.087948 -0.0983,-0.1249028 0,-1e-7 0,-2e-7 0,-3e-7 -0.0566,-0.096471 0.0109,-0.068886 0.0927,-0.017112 0,1e-7 0,1e-7 0,1e-7 0.0402,0.025445 0.0839,0.056758 0.11819,0.082248 0.0717,0.056071 0.10233,0.083926 -0.0272,-0.033579 -0.0676,-0.046762 -0.16812,-0.1297258 -0.31838,-0.2551521 0,-2e-7 0,-5e-7 0,-7e-7 0,-2e-7 0,-4e-7 0,-7e-7 -0.30748,-0.2566638 -0.8233,-0.691341 -1.65446,-1.4014374 0,-5e-7 0,-9e-7 -10e-6,-1.3e-6 -0.65734,-0.7637125 -1.6381,-2.0262023 -3.38767,-3.8439047 0,-4e-7 0,-8e-7 0,-1.2e-6 -0.55671,-0.7618075 -1.03528,-1.5777314 -1.49156,-2.39179454 0.71085,1.02077624 1.45739,2.00388154 2.12042,3.02499854 0.66302,1.021117 1.23151,2.0887816 1.63901,3.2251315 0.30745,0.8578448 0.54552,1.7348018 0.70138,2.6275597 0.31203,1.7863658 0.28471,3.6422298 -0.0639,5.4847828 -0.34861,1.842553 -1.01695,3.668571 -1.83437,5.349386 z"
       copytype="single_stretched"
       prop_scale="1"
       scale_y_rel="false"
       spacing="0"
       normal_offset="0"
       tang_offset="0"
       prop_units="false"
       vertical_pattern="false"
       fuse_tolerance="0" />
    <inkscape:path-effect
       effect="skeletal"
       id="path-effect6731"
       is_visible="true"
       pattern="m 674.98943,-61.010763 4.96268,-0.609768 c -0.67517,-2.200909 -1.33327,-4.410339 -1.97411,-6.628019 -0.68854,-2.382718 -1.35716,-4.774962 -2.00563,-7.176397 -0.21131,2.47846 -0.40117,4.962385 -0.56942,7.451402 -0.15659,2.316618 -0.29447,4.637646 -0.41352,6.962782 z"
       copytype="repeated_stretched"
       prop_scale="1"
       scale_y_rel="false"
       spacing="30"
       normal_offset="0.3"
       tang_offset="0"
       prop_units="false"
       vertical_pattern="false"
       fuse_tolerance="0" />
    <inkscape:path-effect
       fuse_tolerance="0"
       vertical_pattern="false"
       prop_units="false"
       tang_offset="0"
       normal_offset="0.3"
       spacing="2.5"
       scale_y_rel="false"
       prop_scale="1"
       copytype="repeated_stretched"
       pattern="m 669.73045,-39.792926 4.70218,1.699852 c 1.00902,-4.100764 2.30715,-8.161876 3.88963,-12.142062 1.37959,-3.469883 2.97537,-6.878567 4.78076,-10.199324 -2.44569,2.881919 -4.73373,5.927588 -6.84359,9.118676 -2.42017,3.660428 -4.60557,7.511837 -6.52898,11.522858 z"
       is_visible="true"
       id="path-effect6718"
       effect="skeletal" />
    <inkscape:path-effect
       effect="skeletal"
       id="path-effect6690"
       is_visible="true"
       pattern="m -3.5,-19.358466 4.7021806,1.699852 C 2.2112056,-21.759378 3.5093322,-25.82049 5.0918179,-29.800676 6.4714083,-33.270559 8.067186,-36.679243 9.87257,-40 7.426884,-37.118081 5.1388428,-34.072412 3.0289827,-30.881324 0.6088165,-27.220896 -1.5765909,-23.369487 -3.5,-19.358466 z"
       copytype="single_stretched"
       prop_scale="1"
       scale_y_rel="false"
       spacing="0"
       normal_offset="0"
       tang_offset="0"
       prop_units="false"
       vertical_pattern="false"
       fuse_tolerance="0" />
    <inkscape:path-effect
       fuse_tolerance="0"
       vertical_pattern="false"
       prop_units="false"
       tang_offset="0"
       normal_offset="0.3"
       spacing="1.6"
       scale_y_rel="false"
       prop_scale="1"
       copytype="repeated_stretched"
       pattern="m -3.5,-20.864583 4.2005468,2.712086 c 1.8325612,-3.64339 2.9292877,-7.55214 3.2763519,-11.451384 C 4.2924018,-33.15231 3.9865266,-36.683635 3.1217534,-40 c 0.078325,3.426364 -0.4396733,6.798207 -1.4794853,9.921881 -1.1421605,3.432084 -2.9169782,6.572023 -5.1422681,9.213536 z"
       is_visible="true"
       id="path-effect6688"
       effect="skeletal" />
    <inkscape:path-effect
       effect="skeletal"
       id="path-effect6642"
       is_visible="true"
       pattern="m 642.19345,-37.011517 4.20054,2.712086 c 1.83256,-3.64339 2.92929,-7.55214 3.27636,-11.451384 0.3155,-3.548429 0.01,-7.079754 -0.85515,-10.396119 0.0783,3.426364 -0.43967,6.798207 -1.47949,9.921881 -1.14216,3.432084 -2.91697,6.572023 -5.14226,9.213536 z"
       copytype="repeated_stretched"
       prop_scale="1"
       scale_y_rel="false"
       spacing="20"
       normal_offset="0.3"
       tang_offset="0"
       prop_units="false"
       vertical_pattern="false"
       fuse_tolerance="0" />
    <inkscape:path-effect
       fuse_tolerance="0"
       vertical_pattern="false"
       prop_units="false"
       tang_offset="0"
       normal_offset="0"
       spacing="0"
       scale_y_rel="false"
       prop_scale="0.5"
       copytype="single_stretched"
       pattern="m -17.5,-1.5 0,10 10,-5 z"
       is_visible="true"
       id="path-effect6608"
       effect="skeletal" />
    <inkscape:path-effect
       fuse_tolerance="0"
       vertical_pattern="false"
       prop_units="false"
       tang_offset="0"
       normal_offset="0"
       spacing="0"
       scale_y_rel="false"
       prop_scale="0.5"
       copytype="single_stretched"
       pattern="M 0,0 0,10 10,5 z"
       is_visible="true"
       id="path-effect6606"
       effect="skeletal" />
    <inkscape:path-effect
       effect="spiro"
       id="path-effect6604"
       is_visible="true" />
    <inkscape:path-effect
       effect="spiro"
       id="path-effect6594"
       is_visible="true" />
    <inkscape:path-effect
       is_visible="true"
       id="path-effect6590"
       effect="spiro" />
    <inkscape:path-effect
       effect="skeletal"
       id="path-effect6552"
       is_visible="true"
       pattern="m 84.873957,28.004602 9.973373,0.729258 c 0.06874,-13.95845 4.096308,-28.20949367 11.72778,-40.523556 5.81912,-9.392654 13.72171,-17.683302 23.10961,-24.068426 -10.12154,5.143638 -19.28241,12.504104 -26.63053,21.554731 -9.637706,11.8747883 -16.081555,26.624794 -18.180233,42.307993 z"
       copytype="repeated_stretched"
       prop_scale="1"
       scale_y_rel="false"
       spacing="0"
       normal_offset="0"
       tang_offset="0"
       prop_units="false"
       vertical_pattern="false"
       fuse_tolerance="0"
       pattern-nodetypes="cccccc" />
    <inkscape:path-effect
       effect="skeletal"
       id="path-effect6533"
       is_visible="true"
       pattern="m -26,-1.5 0,10 10,-5 z"
       copytype="single_stretched"
       prop_scale="0.5"
       scale_y_rel="false"
       spacing="0"
       normal_offset="0"
       tang_offset="0"
       prop_units="false"
       vertical_pattern="false"
       fuse_tolerance="0" />
    <inkscape:path-effect
       effect="spiro"
       id="path-effect6531"
       is_visible="true" />
    <inkscape:path-effect
       effect="skeletal"
       id="path-effect6515"
       is_visible="true"
       pattern="M 0,0 0,10 10,5 z"
       copytype="single_stretched"
       prop_scale="1"
       scale_y_rel="false"
       spacing="0"
       normal_offset="0"
       tang_offset="0"
       prop_units="false"
       vertical_pattern="false"
       fuse_tolerance="0" />
    <inkscape:path-effect
       effect="spiro"
       id="path-effect6513"
       is_visible="true" />
    <linearGradient
       id="linearGradient6495">
      <stop
         style="stop-color:#101215;stop-opacity:1;"
         offset="0"
         id="stop6497" />
      <stop
         style="stop-color:#2d47a2;stop-opacity:1;"
         offset="1"
         id="stop6499" />
    </linearGradient>
    <inkscape:path-effect
       is_visible="true"
       id="path-effect6481"
       effect="spiro" />
    <inkscape:path-effect
       effect="gears"
       id="path-effect6475"
       is_visible="true"
       teeth="16"
       phi="3.8" />
    <inkscape:path-effect
       effect="interpolate"
       id="path-effect6473"
       is_visible="true"
       trajectory="M 0,0 0,0"
       equidistant_spacing="true"
       steps="5" />
    <inkscape:path-effect
       effect="skeletal"
       id="path-effect6469"
       is_visible="true"
       pattern="M 15,-33.333334 31.666667,-8.3333337 40.000003,-28.333334 15,-33.333334 z"
       copytype="repeated_stretched"
       prop_scale="1"
       scale_y_rel="false"
       spacing="0"
       normal_offset="0"
       tang_offset="0"
       prop_units="false"
       vertical_pattern="true"
       fuse_tolerance="0"
       pattern-nodetypes="cccc" />
    <inkscape:path-effect
       effect="spiro"
       id="path-effect6467"
       is_visible="true" />
    <inkscape:path-effect
       effect="skeletal"
       id="path-effect6463"
       is_visible="true"
       pattern="M 0,0 0,10 10,5 z"
       copytype="single_stretched"
       prop_scale="1"
       scale_y_rel="false"
       spacing="0"
       normal_offset="0"
       tang_offset="0"
       prop_units="false"
       vertical_pattern="false"
       fuse_tolerance="0" />
    <inkscape:path-effect
       effect="spiro"
       id="path-effect6461"
       is_visible="true" />
    <inkscape:path-effect
       effect="skeletal"
       id="path-effect6455"
       is_visible="true"
       pattern="M 0,0 0,10 10,5 z"
       copytype="single_stretched"
       prop_scale="1"
       scale_y_rel="false"
       spacing="0"
       normal_offset="0"
       tang_offset="0"
       prop_units="false"
       vertical_pattern="false"
       fuse_tolerance="0" />
    <inkscape:path-effect
       effect="spiro"
       id="path-effect6453"
       is_visible="true" />
    <inkscape:path-effect
       effect="skeletal"
       id="path-effect6449"
       is_visible="true"
       pattern="M 0,0 0,10 10,5 z"
       copytype="single_stretched"
       prop_scale="1"
       scale_y_rel="false"
       spacing="0"
       normal_offset="0"
       tang_offset="0"
       prop_units="false"
       vertical_pattern="false"
       fuse_tolerance="0" />
    <inkscape:path-effect
       effect="spiro"
       id="path-effect6447"
       is_visible="true" />
    <inkscape:path-effect
       effect="skeletal"
       id="path-effect6443"
       is_visible="true"
       pattern="M 0,0 0,10 10,5 z"
       copytype="single_stretched"
       prop_scale="1"
       scale_y_rel="false"
       spacing="0"
       normal_offset="0"
       tang_offset="0"
       prop_units="false"
       vertical_pattern="false"
       fuse_tolerance="0" />
    <inkscape:path-effect
       effect="spiro"
       id="path-effect6441"
       is_visible="true" />
    <inkscape:path-effect
       effect="skeletal"
       id="path-effect6437"
       is_visible="true"
       pattern="M 0,0 0,10 10,5 z"
       copytype="single_stretched"
       prop_scale="1"
       scale_y_rel="false"
       spacing="0"
       normal_offset="0"
       tang_offset="0"
       prop_units="false"
       vertical_pattern="false"
       fuse_tolerance="0" />
    <inkscape:path-effect
       effect="spiro"
       id="path-effect6435"
       is_visible="true" />
    <inkscape:path-effect
       effect="spiro"
       id="path-effect6431"
       is_visible="true" />
    <inkscape:path-effect
       effect="skeletal"
       id="path-effect6420"
       is_visible="true"
       pattern="m 555.00001,306.66666 -112.58455,-86.58945 -26.27765,-48.12761 6.84829,-42.82244 56.79398,58.84601 75.21993,118.69349 z"
       copytype="single_stretched"
       prop_scale="1"
       scale_y_rel="false"
       spacing="0"
       normal_offset="0"
       tang_offset="0"
       prop_units="false"
       vertical_pattern="false"
       fuse_tolerance="0"
       pattern-nodetypes="cccccc" />
    <inkscape:perspective
       sodipodi:type="inkscape:persp3d"
       inkscape:vp_x="0 : 300 : 1"
       inkscape:vp_y="0 : 1000 : 0"
       inkscape:vp_z="800 : 300 : 1"
       inkscape:persp3d-origin="400 : 200 : 1"
       id="perspective5838" />
    <linearGradient
       inkscape:collect="always"
       xlink:href="#linearGradient6495"
       id="linearGradient6509"
       x1="402.5"
       y1="-10.733334"
       x2="402.5"
       y2="274.97925"
       gradientUnits="userSpaceOnUse"
       spreadMethod="reflect"
       gradientTransform="translate(-20.295983,15.221987)" />
    <inkscape:perspective
       id="perspective6571"
       inkscape:persp3d-origin="0.5 : 0.33333333 : 1"
       inkscape:vp_z="1 : 0.5 : 1"
       inkscape:vp_y="0 : 1000 : 0"
       inkscape:vp_x="0 : 0.5 : 1"
       sodipodi:type="inkscape:persp3d" />
    <inkscape:path-effect
       effect="skeletal"
       id="path-effect6552-6"
       is_visible="true"
       pattern="m 219.6685,41.365925 9.97337,0.72926 c 0.0687,-13.95845 4.09631,-28.2095 11.72778,-40.5235601 5.81912,-9.39265 13.72171,-17.6832999 23.10961,-24.0684299 -10.12154,5.14364 -19.28241,12.5041099 -26.63053,21.55472987 C 228.21102,10.932715 221.76718,25.682725 219.6685,41.365925 z"
       copytype="repeated_stretched"
       prop_scale="1"
       scale_y_rel="false"
       spacing="0"
       normal_offset="0"
       tang_offset="0"
       prop_units="false"
       vertical_pattern="false"
       fuse_tolerance="0"
       pattern-nodetypes="cccccc" />
    <linearGradient
       inkscape:collect="always"
       xlink:href="#linearGradient6495"
       id="linearGradient7365"
       gradientUnits="userSpaceOnUse"
       gradientTransform="translate(-7.6109935,10.147991)"
       spreadMethod="reflect"
       x1="402.5"
       y1="-10.733334"
       x2="402.5"
       y2="274.97925" />
    <filter
       id="filter7523"
       inkscape:label="Glow"
       inkscape:menu="Shadows and Glows"
       inkscape:menu-tooltip="Glow of object's own color at the edges"
       color-interpolation-filters="sRGB">
      <feGaussianBlur
         id="feGaussianBlur7525"
         stdDeviation="5"
         result="result91" />
      <feComposite
         id="feComposite7527"
         in2="result91"
         in="SourceGraphic"
         operator="over" />
    </filter>
  </defs>
  <sodipodi:namedview
     id="base"
     pagecolor="#ffffff"
     bordercolor="#666666"
     borderopacity="1.0"
     inkscape:pageopacity="0.0"
     inkscape:pageshadow="2"
     inkscape:zoom="1.5766667"
     inkscape:cx="406.25255"
     inkscape:cy="475.1915"
     inkscape:current-layer="layer4"
     inkscape:document-units="px"
     showgrid="false"
     inkscape:snap-smooth-nodes="false"
     inkscape:window-width="1304"
     inkscape:window-height="750"
     inkscape:window-x="54"
     inkscape:window-y="-8"
     inkscape:window-maximized="1" />
  <metadata
     id="metadata5835">
    <rdf:RDF>
      <cc:Work
         rdf:about="">
        <dc:format>image/svg+xml</dc:format>
        <dc:type
           rdf:resource="http://purl.org/dc/dcmitype/StillImage" />
        <dc:title></dc:title>
      </cc:Work>
    </rdf:RDF>
  </metadata>
  <g
     inkscape:groupmode="layer"
     id="layer4"
     inkscape:label="Background">
    <rect
       style="fill:url(#linearGradient7365);fill-opacity:1;stroke:#000000;stroke-width:4.80000019;stroke-miterlimit:4;stroke-opacity:1;stroke-dasharray:none;display:inline"
       id="rect6493"
       width="811.66669"
       height="618.33331"
       x="-10.944326"
       y="1.8146584" />
    <path
       style="fill:#000000;fill-rule:evenodd;stroke:none;opacity:1;filter:url(#filter7523);fill-opacity:0.18181819"
       d="m 216.91332,508.66808 c 0,0 109.0909,-210.57083 63.42494,-206.76533 -45.66596,3.80549 -190.274834,17.75898 -190.274834,17.75898 l 0,-77.37843 c 0,0 195.348824,46.93446 154.756864,-55.81396 C 204.22832,83.720928 276.53277,-3.8054995 276.53277,-3.8054995 l 55.81395,5.073996 c 0,0 -15.22199,241.0148035 16.49048,233.4038035 31.71248,-7.61099 175.05286,-87.52642 172.51586,-27.90697 -1.2685,29.80972 -118.92177,66.27906 -144.76744,108.61522 -25.84566,42.33615 -15.69767,124.78858 -9.98943,213.5835"
       id="path7447"
       sodipodi:nodetypes="csccsccsssc" />
  </g>
  <g
     inkscape:groupmode="layer"
     id="layer3"
     inkscape:label="Grass"
     style="display:inline">
    <path
       style="fill:#000000;fill-rule:evenodd;stroke:none"
       d="m -289.18882,603.58085 4.96268,-0.60976 c -0.67517,-2.20091 -1.33326,-4.41034 -1.97411,-6.62802 -0.68853,-2.38272 -1.35715,-4.77496 -2.00563,-7.1764 -0.21131,2.47846 -0.40116,4.96239 -0.56941,7.4514 -0.1566,2.31662 -0.29448,4.63765 -0.41353,6.96278 z"
       id="path6529"
       inkscape:path-effect="#path-effect6531;#path-effect6608"
       inkscape:original-d="m -286.70748,603.27597 c 0,0 -2.71833,-5.18176 -0.78029,-6.7954 1.93804,-1.61363 -3.86742,-2.79572 -0.71811,-7.3139"
       sodipodi:nodetypes="csc" />
    <path
       style="fill:#000000;fill-rule:evenodd;stroke:none"
       d="m -665.00009,423.46677 c 3.22324,1.77276 6.44879,3.5465 9.67664,5.32123 5.8324,-12.61185 15.72843,-23.6463 28.02198,-31.41576 9.37524,-5.92705 20.13968,-9.98446 31.387,-11.71374 -11.46524,0.26332 -23.03558,2.91944 -33.75798,7.83973 -14.06503,6.45712 -26.60364,16.80622 -35.32764,29.96854 z m 44.83048,20.94045 c 3.23359,1.77717 6.46949,3.55532 9.7077,5.33444 4.7918,-11.76909 12.9774,-22.22106 23.34429,-30.03699 0,-1e-5 0,-1e-5 0,-1e-5 0.99023,-0.80917 1.99565,-1.60231 3.01509,-2.37885 4.5637,-3.47729 9.40283,-6.62996 14.39889,-9.43178 4.99605,-2.80183 10.14939,-5.25308 15.39547,-7.30347 -10.04575,2.55536 -20.20054,6.59532 -30.04115,11.99737 -0.76961,0.34883 -1.53456,0.71014 -2.29444,1.0839 -13.55931,6.67235 -25.46975,17.2888 -33.52585,30.73539 z m 48.64272,17.20883 c 3.78486,1.15072 7.58367,2.2503 11.39434,3.30055 1.68178,-6.72631 4.52663,-13.27793 8.22215,-19.47402 3.69552,-6.1961 8.23773,-12.03917 13.39099,-17.3621 3.92973,-4.06027 8.2141,-7.82552 12.74551,-11.24375 4.53141,-3.41822 9.3102,-6.48957 14.27502,-9.1439 -5.24449,1.99982 -10.41823,4.47171 -15.46529,7.36756 -5.04706,2.89585 -9.96843,6.21542 -14.66878,9.93408 -6.16534,4.87935 -11.936,10.4404 -17.03617,16.57442 -5.10016,6.13402 -9.52816,12.84384 -12.85777,20.04716 z m 52.07885,9.33079 c 3.38416,0.63628 6.77233,1.2394 10.16307,1.81058 0.44247,0.0722 0.885,0.14388 1.32759,0.21502 0.71146,-6.94272 2.55357,-13.8475 5.327,-20.47119 2.77344,-6.62369 6.47569,-12.9673 10.95167,-18.81366 6.82622,-8.91888 15.41395,-16.71528 25.11927,-22.83788 -10.41598,4.86176 -20.19948,11.64631 -28.63793,20.04942 -4.12247,4.1066 -7.90632,8.59919 -11.26362,13.41176 -5.66888,8.10325 -10.2306,17.07828 -12.98705,26.63595 z m 51.13526,3.72292 c 3.76426,0.34776 7.53082,0.6608 11.29892,0.94016 0.10293,-6.97753 1.32638,-14.01482 3.51115,-20.85249 2.18478,-6.83766 5.32864,-13.47649 9.30954,-19.68073 6.07096,-9.46467 14.05223,-17.94915 23.34931,-24.80941 -10.1102,5.65743 -19.38125,13.23409 -27.10143,22.32798 -5.06284,5.96576 -9.43217,12.58037 -12.90723,19.65638 -3.47505,7.07601 -6.0547,14.61484 -7.46026,22.41811 z m 50.64587,-0.59542 c 3.75227,0.0573 7.50374,0.0847 11.25364,0.0832 -0.83266,-13.9392 2.72608,-28.43005 9.80589,-41.37447 2.69415,-4.92757 5.89961,-9.64069 9.53716,-14.04987 3.72129,-4.43741 7.92309,-8.55609 12.52312,-12.25806 -4.50457,2.78623 -8.79447,5.97424 -12.78998,9.51666 -4.84489,4.36918 -9.28925,9.25664 -13.20071,14.58351 -4.63637,6.31634 -8.50673,13.24156 -11.43256,20.5636 -2.92582,7.32204 -4.90609,15.04206 -5.69656,22.93539 z m 49.79573,-4.0704 c 3.6531,-0.1382 7.31195,-0.28962 10.97647,-0.45613 -1.48222,-13.88406 1.33079,-28.52628 7.93867,-41.74047 5.03826,-10.07899 12.25787,-19.35491 21.00198,-27.07435 -9.67793,6.60039 -18.31754,15.11195 -25.0369,25.02751 -8.81256,13.0092 -14.22957,28.40236 -14.88022,44.24344 z m 49.10839,-6.07475 c 3.69075,-0.29269 7.38626,-0.60682 11.0864,-0.94426 -2.09344,-13.79854 0.11826,-28.54262 6.03055,-42.05676 4.50771,-10.30769 11.13815,-19.93135 19.26272,-28.14782 -9.11324,7.15448 -17.17904,16.08359 -23.3755,26.2989 -8.12653,13.40232 -12.9535,28.9938 -13.00417,44.84994 z m 49.3602,-8.62096 c 0.33986,-0.0476 0.67976,-0.0954 1.01969,-0.14343 3.34556,-0.45623 6.72117,-0.9445 10.12446,-1.47451 -1.48801,-6.82624 -1.89343,-13.96526 -1.3173,-21.13139 0.57612,-7.16612 2.13808,-14.35969 4.53312,-21.31779 3.65178,-10.61422 9.20714,-20.67481 15.43512,-29.53602 -3.63856,3.95417 -7.1958,8.28663 -10.52539,12.96588 -3.3296,4.67926 -6.42832,9.70457 -9.11227,15.01605 -3.1082,6.15368 -5.64209,12.68082 -7.40957,19.41561 -1.76747,6.73479 -2.76867,13.67612 -2.85932,20.65251 -0.0269,1.84953 0.009,3.70172 0.11146,5.55309 z m 50.43267,-13.23031 c 3.89636,-1.07847 7.81157,-2.25092 11.74247,-3.53029 -2.53193,-6.51245 -3.94619,-13.5333 -4.4941,-20.72426 -0.2653,-3.58706 -0.30299,-7.22618 -0.18779,-10.84949 0.1152,-3.62331 0.38473,-7.23062 0.65989,-10.71915 0.31835,-4.04371 0.64307,-7.92824 0.57879,-11.45733 -0.0643,-3.5291 -0.52158,-6.69711 -1.87666,-9.33678 -1.20502,-0.77945 -2.58282,-1.05675 -4.10795,-0.85523 9.43698,4.58902 18.87762,9.165 28.32194,13.72794 -9.44433,-4.56295 -18.88498,-9.13893 -28.32195,-13.72794 1.16261,-0.3607 2.24425,-0.37093 3.20672,0.0249 1.08358,2.42232 1.10869,5.43912 0.59764,8.95448 -0.51105,3.51537 -1.54907,7.52179 -2.6178,11.81239 -0.68672,2.759 -1.3853,5.63143 -1.99951,8.55709 0,0 0,0 0,0 -1.30785,6.19304 -2.21922,12.54922 -2.53639,18.94937 -0.31717,6.40014 -0.0402,12.84435 1.0347,19.17427 z"
       id="path6550"
       inkscape:path-effect="#path-effect6552"
       inkscape:original-d="m -651.66667,395 c 0,0 78.33334,63.33333 266.66667,45 188.33333,-18.33334 196.66667,-51.66667 196.66667,-51.66667" />
    <path
       sodipodi:nodetypes="csc"
       inkscape:original-d="m -277.18815,604.15813 c 0,0 2.00358,-9.26018 5.20931,-11.83246 3.20573,-2.57227 0.60286,-2.45663 5.81217,-9.659"
       inkscape:path-effect="#path-effect6590;#path-effect6533"
       id="path6588"
       d="m -279.53924,603.3082 4.70218,1.69986 c 1.00903,-4.10077 2.30715,-8.16188 3.88964,-12.14207 1.37959,-3.46988 2.97537,-6.87856 4.78075,-10.19932 -2.44569,2.88192 -4.73373,5.92759 -6.84359,9.11868 -2.42016,3.66042 -4.60557,7.51183 -6.52898,11.52285 z"
       style="fill:#000000;fill-rule:evenodd;stroke:none" />
    <path
       style="fill:#000000;fill-rule:evenodd;stroke:none"
       d="m -298.45552,602.71124 4.53474,-2.10622 c -2.23527,-3.7093 -4.60258,-7.31864 -7.09299,-10.81914 -1.97516,-2.77627 -4.02771,-5.48404 -6.1529,-8.11921 1.50439,3.03271 2.91244,6.10102 4.22276,9.19879 1.65213,3.90585 3.14891,7.8586 4.48839,11.84578 z"
       id="path6592"
       inkscape:path-effect="#path-effect6594;#path-effect6606"
       inkscape:original-d="m -296.18815,601.65813 c 0,0 -8.99642,-8.76018 -5.79069,-11.33246 3.20573,-2.57227 -10.39714,-1.45663 -5.18783,-8.659"
       sodipodi:nodetypes="csc" />
    <path
       style="fill:#000000;fill-rule:evenodd;stroke:none"
       d="m -268.78842,599.80209 4.20054,2.71208 c 1.83256,-3.64339 2.92929,-7.55214 3.27636,-11.45138 0.3155,-3.54843 0.01,-7.07976 -0.85515,-10.39612 0.0783,3.42636 -0.43967,6.79821 -1.47949,9.92188 -1.14216,3.43209 -2.91697,6.57202 -5.14226,9.21354 z"
       id="path6596"
       inkscape:path-effect="#path-effect6604;#path-effect6533"
       inkscape:original-d="m -266.68815,601.15813 c 0,0 1.00358,-7.76018 4.20931,-10.33246 3.20573,-2.57227 -4.89714,-2.95663 0.31217,-10.159"
       sodipodi:nodetypes="csc" />
    <path
       style="fill:#000000;fill-opacity:1;fill-rule:evenodd;stroke:none"
       d="m 204.09119,469.86346 c 1.34685,1.03637 2.69447,2.07229 4.04289,3.10776 2.21835,-3.45018 3.70469,-7.23703 4.42333,-11.08622 0.65364,-3.50292 0.67065,-7.04829 0.0986,-10.43309 -0.24059,3.41902 -1.0841,6.72678 -2.4393,9.73675 -1.48868,3.30719 -3.59864,6.26195 -6.12549,8.6748 z m 28.24703,2.6154 c 1.35282,1.0294 2.7065,2.05828 4.06105,3.08663 2.20057,-3.46268 3.66656,-7.25821 4.36431,-11.11189 0.63463,-3.507 0.63224,-7.05298 0.0419,-10.43519 -0.22206,3.42084 -1.04758,6.73369 -2.38671,9.75145 -1.47102,3.31574 -3.5656,6.28234 -6.08052,8.709 z m 28.27038,2.45756 c 1.35926,1.02152 2.71945,2.04244 4.08059,3.06275 2.18048,-3.47612 3.62371,-7.28079 4.29819,-11.13895 0.61344,-3.51107 0.58955,-7.05726 -0.0211,-10.43615 -0.20146,3.42242 -1.00693,6.74048 -2.32804,9.76649 -1.45121,3.32481 -3.52841,6.30417 -6.02967,8.74586 z m 28.2921,2.28261 c 1.36616,1.01271 2.73334,2.02474 4.10154,3.0361 2.15807,-3.49049 3.5761,-7.30475 4.22493,-11.16738 0.5901,-3.51513 0.54257,-7.06114 -0.0902,-10.43598 -0.17879,3.42374 -0.96214,6.74714 -2.26328,9.78188 -1.42926,3.33438 -3.48708,6.32741 -5.97295,8.78538 z m 28.31219,2.09051 c 1.37354,1.00298 2.74815,2.00521 4.12388,3.00669 2.13336,-3.50578 3.52375,-7.3301 4.14455,-11.19719 0.5646,-3.51919 0.49132,-7.06462 -0.16565,-10.43469 -0.15405,3.42484 -0.91321,6.7537 -2.19242,9.79762 -1.40517,3.34448 -3.4416,6.35211 -5.91036,8.82757 z m 28.33067,1.88129 c 1.38136,0.99233 2.76389,1.98384 4.14759,2.97452 2.10634,-3.52201 3.46668,-7.35683 4.05707,-11.22837 0.53692,-3.52324 0.43577,-7.06771 -0.2473,-10.43227 -0.12725,3.42567 -0.86015,6.76013 -2.11548,9.8137 -1.37894,3.35509 -3.39197,6.37823 -5.84188,8.87242 z m 28.3475,1.65493 c 1.38966,0.98076 2.78056,1.96062 4.17272,2.93959 2.07699,-3.53916 3.40484,-7.38495 3.96245,-11.26093 0.50708,-3.52728 0.37594,-7.07039 -0.33519,-10.42872 -0.0984,3.42627 -0.80294,6.76645 -2.03245,9.83014 -1.35056,3.3662 -3.33819,6.40578 -5.76753,8.91992 z m 28.36271,1.41145 c 1.39842,0.96827 2.79816,1.93557 4.19923,2.90189 2.04535,-3.55723 3.33828,-7.41444 3.86072,-11.29486 0.47508,-3.53131 0.31184,-7.07267 -0.42931,-10.42404 -0.0674,3.42661 -0.7416,6.77265 -1.94333,9.84692 -1.32004,3.37782 -3.28028,6.43476 -5.68731,8.97009 z m 28.3763,1.15084 c 1.40764,0.95485 2.81668,1.90866 4.22713,2.86142 2.01139,-3.57623 3.26697,-7.44532 3.75187,-11.33016 0.44092,-3.53534 0.24344,-7.07455 -0.52967,-10.41824 -0.0344,3.42672 -0.67613,6.77873 -1.84812,9.86406 -1.28738,3.38995 -3.21821,6.46517 -5.60121,9.02292 z m 28.38825,0.87309 c 1.41733,0.94052 2.83614,1.87992 4.25643,2.8182 1.97511,-3.59617 3.19093,-7.47759 3.6359,-11.36685 0.40458,-3.53935 0.17077,-7.07603 -0.63628,-10.4113 6.5e-4,3.42657 -0.6065,6.7847 -1.74682,9.88153 -1.25257,3.40261 -3.15199,6.49703 -5.50923,9.07842 z m 28.39858,0.57822 c 1.42749,0.92526 2.85652,1.84934 4.28713,2.77221 1.93652,-3.61703 3.11013,-7.51124 3.5128,-11.40491 0.36608,-3.54336 0.0938,-7.0771 -0.74912,-10.40324 0.0378,3.42619 -0.53275,6.79055 -1.63944,9.89936 -1.21562,3.41577 -3.08162,6.53032 -5.41137,9.13658 z m 28.40728,0.26622 c 1.43811,0.90908 2.87784,1.8169 4.31921,2.72345 1.89563,-3.63882 3.0246,-7.54627 3.38259,-11.44434 0.32542,-3.54736 0.0126,-7.07778 -0.86819,-10.39405 0.077,3.42555 -0.45486,6.79627 -1.52597,9.91754 -1.17652,3.42944 -3.00711,6.56503 -5.30764,9.1974 z m 28.41435,-0.0629 c 1.44919,0.89199 2.90008,1.78264 4.35269,2.67195 1.85242,-3.66155 2.93433,-7.5827 3.24525,-11.48516 0.2826,-3.55135 -0.0729,-7.07806 -0.9935,-10.38372 0.11828,3.42467 -0.37283,6.80188 -1.4064,9.93605 -1.13529,3.44363 -2.92845,6.60118 -5.19804,9.26088 z m 28.4198,-0.40918 c 1.46074,0.87397 2.92325,1.74652 4.38756,2.61766 0.0374,-0.0764 0.0745,-0.15282 0.11131,-0.22938 1.73811,-3.61887 2.73356,-7.47211 2.98948,-11.29801 0.23746,-3.55534 -0.16307,-7.07791 -1.12529,-10.37224 0.16169,3.42354 -0.28644,6.80738 -1.28051,9.95494 -0.23634,0.74857 -0.50367,1.48412 -0.8002,2.20448 0,0 0,0 0,0 -1.07338,2.60761 -2.52963,5.01617 -4.28235,7.12255 z m 28.43628,-0.78818 c 1.47564,0.85218 2.95376,1.70234 4.43452,2.55039 1.7534,-3.7135 2.72303,-7.6654 2.92119,-11.57612 0.17997,-3.55886 -0.27798,-7.07452 -1.29112,-10.35337 0.2163,3.4207 -0.17656,6.81142 -1.12095,9.97443 -1.0373,3.47528 -2.74342,6.68298 -4.94364,9.40467 z m 28.46129,-1.28512 c 1.4944,0.82235 2.99191,1.64203 4.49268,2.45894 1.67976,-3.74885 2.5656,-7.72023 2.68028,-11.63382 0.10401,-3.56146 -0.42928,-7.06603 -1.50974,-10.32243 0.28846,3.41497 -0.0314,6.81285 -0.9093,9.99451 -0.96422,3.49577 -2.60504,6.73784 -4.75392,9.5028 z m 28.46611,-1.92767 c 1.51675,0.78449 3.03725,1.56564 4.56164,2.34336 1.44757,-3.46024 2.22474,-7.08937 2.35759,-10.67342 0,0 0,0 0,0 0.0127,-0.34282 0.0195,-0.68523 0.0205,-1.02706 0.006,-2.19068 -0.22882,-4.35356 -0.68091,-6.44457 0,0 0,0 0,0 -0.28324,-1.31003 -0.65182,-2.59187 -1.10025,-3.83486 0.37818,3.40633 0.14898,6.81167 -0.64555,10.0152 -0.87264,3.51979 -2.43071,6.8033 -4.513,9.62135 z m 28.5244,-2.79806 c 0.2619,0.12096 0.52405,0.2417 0.78645,0.36222 1.30774,0.59706 2.63037,1.18731 3.97351,1.76653 0.52168,-1.38098 0.93048,-2.78348 1.22786,-4.19335 0.5359,-2.54822 0.70731,-5.11272 0.55574,-7.62574 -0.0547,-0.90595 -0.1513,-1.80462 -0.28654,-2.69318 0,0 0,0 0,0 2e-5,1.5e-4 3e-5,2.3e-4 5e-5,3.1e-4 10e-6,8e-5 2e-5,1.6e-4 3e-5,2.4e-4 0.58911,3.84929 0.59686,3.89996 -0.008,-0.0508 -2e-5,-9e-5 -3e-5,-1.7e-4 -4e-5,-2.5e-4 -10e-6,-9e-5 -3e-5,-1.8e-4 -4e-5,-2.6e-4 -10e-6,-4e-5 -10e-6,-9e-5 -2e-5,-1.3e-4 -1e-5,-4e-5 -1e-5,-8e-5 -2e-5,-1.2e-4 -10e-6,-8e-5 -2e-5,-1.7e-4 -4e-5,-2.5e-4 10e-6,4e-5 10e-6,4e-5 10e-6,4e-5 -0.39715,-2.57986 -1.11929,-5.07403 -2.09379,-7.41218 0.41801,2.44955 0.53212,4.91475 0.32664,7.3234 -0.0781,0.91212 -0.20229,1.81556 -0.37268,2.70589 -0.60717,3.17399 -1.81278,6.18764 -3.48509,8.86223 0,0 0,0 0,0 -0.20137,0.32351 -0.40953,0.64208 -0.62426,0.95539 z"
       id="path6640"
       inkscape:path-effect="#path-effect6642"
       inkscape:original-d="m 204.89747,461.39007 c 340.963,32.44397 488.34989,8.98097 488.34989,8.98097"
       sodipodi:nodetypes="cc" />
    <path
       sodipodi:nodetypes="cc"
       inkscape:original-d="m 244.81396,479.41755 c 2.27378,1.99999 437.60994,-8.77802 437.60994,-8.77802"
       inkscape:path-effect="#path-effect6718"
       id="path6716"
       d="m 242.89328,488.99775 c 0.0778,0.0291 0.15626,0.052 0.23074,0.0738 0.1267,0.037 0.24446,0.0691 0.35234,0.0983 0.35484,0.0962 0.60357,0.16165 0.74123,0.20267 0,0 0,0 0,0 0,0 0,0 0,0 0,0 0,0 0,0 0.70252,0.18899 1.24622,0.34158 1.60997,0.47398 1.29781,0.44877 2.53669,0.8629 3.68704,1.26811 0.16175,-0.59655 0.3276,-1.19236 0.49791,-1.7872 1.01466,-3.4829 2.22216,-6.93402 3.61507,-10.3313 1.42164,-3.46736 3.03608,-6.87916 4.85229,-10.20981 -2.46899,2.89532 -4.78361,5.94317 -6.9621,9.12106 -0.47946,0.69941 -0.95223,1.40513 -1.41843,2.11697 0,0 0,0 0,0 0,0 0,0 0,0 -1.37953,2.10793 -2.69704,4.27259 -4.12681,6.44875 0,0 0,0 0,0 -0.39735,0.64715 -0.91983,1.28505 -1.65072,1.88774 0,0 0,0 0,0 -0.15728,0.1849 -0.4178,0.34809 -0.79553,0.47932 0,0 0,0 0,0 -0.11582,0.0402 -0.24272,0.0775 -0.38031,0.1096 0,0 0,0 0,0 -0.0811,0.0189 -0.16682,0.0367 -0.25269,0.048 z m 18.28597,0.41328 c 1.06316,0.36302 2.12429,0.72501 3.18244,1.08683 0.5599,0.19091 1.11988,0.38165 1.67993,0.57224 1.00334,-4.11007 2.3006,-8.18368 3.88451,-12.18057 1.38083,-3.48445 2.97959,-6.91091 4.78912,-10.25339 -2.47051,2.91147 -4.78317,5.98213 -6.91837,9.19414 -1.22458,1.84216 -2.39069,3.73074 -3.49489,5.66194 -1.10306,1.93135 -2.14381,3.90584 -3.12274,5.91881 z m 16.35639,-0.1664 c 1.62146,0.54626 3.24338,1.09148 4.86561,1.6358 0.98278,-4.1147 2.26069,-8.19417 3.82776,-12.19775 1.36615,-3.49028 2.95216,-6.92321 4.75156,-10.27242 -2.46277,2.92066 -4.76446,6.00092 -6.88569,9.22247 -2.43322,3.69537 -4.62871,7.57628 -6.55924,11.6119 z m 16.33871,-0.23591 c 1.62159,0.54075 3.24333,1.0809 4.86509,1.62058 0.96962,-4.11751 2.23553,-8.20049 3.79297,-12.2079 1.35776,-3.49361 2.93718,-6.9301 4.73248,-10.28274 -2.46026,2.92535 -4.75652,6.01102 -6.86958,9.23824 -2.42383,3.70188 -4.60633,7.58965 -6.52096,11.63182 z m 16.32051,-0.27669 c 1.38316,0.45928 2.76621,0.91844 4.14908,1.37756 0.23761,0.0788 0.47522,0.1577 0.71284,0.23654 0.9643,-4.11854 2.22574,-8.20279 3.77963,-12.21157 1.35466,-3.49482 2.93168,-6.93258 4.72451,-10.28661 -2.45818,2.92726 -4.75266,6.01482 -6.8627,9.24412 -0.86947,1.33067 -1.70757,2.68536 -2.51303,4.06261 -1.43662,2.45669 -2.76902,4.98528 -3.99033,7.57735 z m 16.3121,-0.29307 c 1.62127,0.5369 3.24266,1.07359 4.86417,1.61009 0.96065,-4.11938 2.21852,-8.20471 3.76902,-12.21481 1.35171,-3.49596 2.9259,-6.93504 4.71608,-10.29055 -2.45592,2.92929 -4.74789,6.01878 -6.85517,9.24989 -2.41722,3.70635 -4.59111,7.59869 -6.4941,11.64538 z m 16.31208,-0.30666 c 1.62161,0.53559 3.24333,1.071 4.86516,1.60623 0.95737,-4.12012 2.21204,-8.20643 3.75951,-12.2177 1.34906,-3.49698 2.92072,-6.93724 4.70856,-10.29406 -2.45392,2.93109 -4.74365,6.0223 -6.84846,9.25504 -2.41439,3.70821 -4.58515,7.60227 -6.48477,11.65049 z M 359.13,487.81323 c 1.62191,0.53443 3.24392,1.0687 4.86602,1.60281 0.95446,-4.12078 2.20629,-8.20795 3.75108,-12.22025 1.34673,-3.49789 2.91618,-6.93919 4.70197,-10.29716 -2.4522,2.93267 -4.73995,6.0254 -6.84259,9.25958 -2.41188,3.70985 -4.57987,7.60543 -6.47648,11.65502 z m 16.30989,-0.33003 c 1.62216,0.53341 3.2444,1.06669 4.86672,1.59982 0.95192,-4.12135 2.20128,-8.20926 3.74374,-12.22247 1.3447,-3.49867 2.91225,-6.94086 4.69629,-10.29982 -2.45072,2.93402 -4.73679,6.02808 -6.83753,9.2635 -2.40971,3.71128 -4.57526,7.60819 -6.46922,11.65897 z m 16.30882,-0.33953 c 1.62237,0.53254 3.2448,1.06496 4.86729,1.59727 0.94974,-4.12185 2.19699,-8.21039 3.73749,-12.22435 1.34299,-3.49933 2.90893,-6.94229 4.69153,-10.30208 -2.44951,2.93517 -4.73416,6.03034 -6.8333,9.26682 -2.40788,3.71249 -4.57134,7.61054 -6.46301,11.66234 z m 16.30779,-0.34758 c 1.62252,0.53181 3.24509,1.06353 4.86771,1.59515 0.94793,-4.12225 2.19343,-8.21131 3.73233,-12.2259 1.34159,-3.49987 2.90623,-6.94344 4.68768,-10.3039 -2.44856,2.93609 -4.73207,6.03217 -6.82989,9.26952 -2.40636,3.71349 -4.56808,7.61248 -6.45783,11.66513 z m 16.30679,-0.35418 c 1.62262,0.53123 3.24528,1.06239 4.86798,1.59347 0.94648,-4.12256 2.19061,-8.21204 3.72825,-12.2271 1.3405,-3.50029 2.90416,-6.94434 4.68476,-10.30531 -2.44787,2.93679 -4.73051,6.03358 -6.82731,9.2716 -2.40518,3.71427 -4.56551,7.61402 -6.45368,11.66734 z m 16.3058,-0.35931 c 1.62268,0.53079 3.24538,1.06152 4.86811,1.59221 0.9454,-4.12279 2.18851,-8.21256 3.72527,-12.22797 1.33972,-3.50058 2.9027,-6.94496 4.68275,-10.30629 -2.44745,2.93728 -4.7295,6.03456 -6.82555,9.27308 -2.40434,3.71483 -4.56361,7.61513 -6.45058,11.66897 z m 16.30484,-0.363 c 1.62269,0.53049 3.24539,1.06096 4.8681,1.59139 0.71762,-3.13193 1.60707,-6.24482 2.66658,-9.32055 0.33526,-0.97323 0.68754,-1.94274 1.05678,-2.90795 1.33922,-3.50078 2.90165,-6.94538 4.68105,-10.30698 -2.07616,2.49263 -4.03333,5.10042 -5.85887,7.81191 -0.32593,0.4841 -0.64766,0.97151 -0.96513,1.46216 -2.40381,3.71518 -4.56239,7.61584 -6.44851,11.67002 z m 16.30472,-0.36556 c 1.62288,0.53023 3.24578,1.0604 4.86873,1.59052 0.94392,-4.12312 2.18556,-8.21332 3.72082,-12.22927 1.33842,-3.50105 2.90007,-6.94599 4.67873,-10.30795 -2.44619,2.93816 -4.72705,6.03625 -6.82191,9.2755 -2.40296,3.71567 -4.56086,7.61671 -6.44637,11.6712 z m 16.3051,-0.3688 c 1.62299,0.52988 3.246,1.05972 4.86905,1.58951 0.94301,-4.12331 2.18374,-8.21376 3.71813,-12.23001 1.33766,-3.50132 2.89857,-6.94657 4.67652,-10.30889 -2.44558,2.93865 -4.72578,6.03719 -6.81993,9.27687 -2.40215,3.71615 -4.55917,7.61764 -6.44377,11.67252 z m 16.30493,-0.37209 c 1.62309,0.52957 3.24621,1.05909 4.86936,1.58856 0.94213,-4.12349 2.182,-8.21417 3.71555,-12.23072 1.33693,-3.50157 2.89714,-6.94711 4.67441,-10.30976 -2.44499,2.9391 -4.72455,6.03808 -6.81803,9.27815 -2.40137,3.71662 -4.55757,7.61852 -6.44129,11.67377 z m 16.30476,-0.37521 c 1.62319,0.52927 3.2464,1.05849 4.86965,1.58767 0.9413,-4.12366 2.18035,-8.21457 3.7131,-12.23139 1.33624,-3.50182 2.89578,-6.94764 4.67241,-10.3106 -2.44443,2.93953 -4.7234,6.03892 -6.81623,9.27937 -2.40064,3.71706 -4.55605,7.61936 -6.43893,11.67495 z m 16.3046,-0.37816 c 1.62327,0.52898 3.24658,1.05792 4.86992,1.58682 0.94051,-4.12382 2.17878,-8.21495 3.71078,-12.23203 1.33558,-3.50204 2.89448,-6.94812 4.6705,-10.31139 -2.44391,2.93995 -4.7223,6.03973 -6.81453,9.28054 -2.39994,3.71746 -4.55459,7.62014 -6.43667,11.67606 z m 16.30443,-0.38095 c 1.62336,0.52871 3.24676,1.05738 4.87018,1.58602 0.93976,-4.12398 2.17729,-8.2153 3.70857,-12.23262 1.33497,-3.50226 2.89326,-6.94859 4.66871,-10.31213 -2.44341,2.94033 -4.72127,6.04047 -6.81292,9.28162 -2.39927,3.71785 -4.55321,7.62088 -6.43454,11.67711 z m 16.30427,-0.38357 c 1.62345,0.52845 3.24692,1.05687 4.87042,1.58526 0.93905,-4.12412 2.17588,-8.21563 3.7065,-12.23318 1.33437,-3.50246 2.8921,-6.94902 4.667,-10.31283 -2.44294,2.9407 -4.72029,6.04118 -6.81139,9.28264 -2.39865,3.71822 -4.55191,7.62158 -6.43253,11.67811 z m 16.30411,-0.38604 c 1.62353,0.52822 3.24708,1.0564 4.87065,1.58455 0.93838,-4.12425 2.17456,-8.21593 3.70454,-12.2337 1.33383,-3.50264 2.89102,-6.94942 4.66541,-10.31347 -2.4425,2.94103 -4.71937,6.04183 -6.80996,9.28359 -2.39806,3.71856 -4.55069,7.62223 -6.43064,11.67903 z m 16.30397,-0.38834 c 1.62359,0.528 3.24722,1.05596 4.87086,1.5839 0.93775,-4.12437 2.17331,-8.21622 3.7027,-12.23418 0.60035,-1.57721 1.24598,-3.1431 1.93635,-4.69522 0.84287,-1.89525 1.75242,-3.76998 2.72764,-5.61972 -0.95175,1.14656 -1.87833,2.3174 -2.77851,3.51138 -1.40966,1.86931 -2.75462,3.79539 -4.03019,5.77396 -2.39751,3.71887 -4.54954,7.62283 -6.42885,11.67988 z m 16.30362,-0.39207 c 1.62361,0.52736 3.24722,1.05471 4.87086,1.58207 0.93725,-4.12474 2.17233,-8.21704 3.70131,-12.23554 1.33295,-3.50327 2.88934,-6.95076 4.66302,-10.31557 -2.44191,2.94207 -4.71807,6.04392 -6.80783,9.2867 -2.39711,3.71972 -4.54864,7.62452 -6.42736,11.68234 z m 16.30321,-0.39593 c 1.62365,0.52735 3.24732,1.0547 4.87101,1.58206 0.93686,-4.12473 2.17157,-8.21702 3.70017,-12.23551 1.33263,-3.50327 2.88869,-6.95075 4.66206,-10.31555 -2.44164,2.94207 -4.71751,6.0439 -6.80697,9.28668 -2.39677,3.71971 -4.54794,7.6245 -6.42627,11.68232 z m 16.3032,-0.39594 c 1.62371,0.52736 3.24743,1.05471 4.87118,1.58206 0.93647,-4.12472 2.17079,-8.217 3.69902,-12.23548 1.3323,-3.50326 2.88805,-6.95073 4.6611,-10.31553 -2.44136,2.94206 -4.71695,6.04389 -6.80611,9.28666 -2.39643,3.7197 -4.54723,7.62448 -6.42519,11.68229 z m 16.3032,-0.39593 c 1.62376,0.52735 3.24754,1.0547 4.87134,1.58205 0.93609,-4.12471 2.17003,-8.21699 3.69788,-12.23545 1.33197,-3.50325 2.8874,-6.95071 4.66014,-10.3155 0.0888,3.62242 0.17766,7.24489 0.26649,10.8675 -0.0888,-3.62261 -0.17766,-7.24508 -0.26649,-10.86742 -2.44109,2.94197 -4.71639,6.04379 -6.80525,9.28655 -2.39608,3.7197 -4.54652,7.62447 -6.42411,11.68227 z"
       style="fill:#000000;fill-opacity:1;fill-rule:evenodd;stroke:none" />
    <path
       style="fill:#000000;fill-opacity:1;fill-rule:evenodd;stroke:none"
       d="m 182.76672,468.79302 c 1.75766,0.0318 3.51529,0.0621 5.27287,0.0909 -0.41631,-2.27589 -0.81212,-4.55783 -1.18737,-6.84549 -0.40318,-2.45791 -0.78264,-4.92242 -1.13832,-7.39316 -0.55002,2.42691 -1.07893,4.86211 -1.58637,7.30531 -0.47229,2.27397 -0.92599,4.55486 -1.36081,6.84241 z m 36.61877,4.70989 c 1.75921,0.0102 3.51833,0.0187 5.27733,0.0256 -0.44501,-2.27147 -0.86939,-4.54928 -1.27312,-6.83312 -0.43377,-2.45379 -0.84371,-4.91454 -1.22976,-7.38186 -0.52029,2.4346 -1.01945,4.87723 -1.49707,7.3276 -0.44453,2.28064 -0.87043,4.56798 -1.27738,6.86176 z m 36.69867,4.23596 c 1.76001,-0.0138 3.51984,-0.0294 5.27948,-0.0469 -0.47661,-2.26542 -0.9325,-4.53752 -1.36765,-6.81596 -0.46754,-2.448 -0.91113,-4.90332 -1.33075,-7.36558 -0.48701,2.4419 -0.95284,4.89156 -1.39708,7.34865 -0.41346,2.28691 -0.80823,4.58026 -1.184,6.8798 z m 36.76835,3.70999 c 1.76003,-0.0402 3.5198,-0.0824 5.27931,-0.12665 -0.51112,-2.25776 -1.00145,-4.52255 -1.47097,-6.79402 -0.50446,-2.44052 -0.98491,-4.88876 -1.4413,-7.34432 -0.45016,2.44883 -0.87909,4.9051 -1.28638,7.36848 -0.37907,2.29277 -0.7394,4.59169 -1.08066,6.89651 z m 36.8278,3.13198 c 1.75927,-0.0691 3.51822,-0.14024 5.27682,-0.21361 -0.54855,-2.24849 -1.07625,-4.50437 -1.58308,-6.7673 -0.54456,-2.43135 -1.06503,-4.87084 -1.56141,-7.31808 -0.40975,2.45539 -0.79822,4.91786 -1.16498,7.38709 -0.34136,2.29821 -0.66392,4.60226 -0.96735,6.9119 z m 36.877,2.50193 c 1.75775,-0.10027 3.51509,-0.20286 5.27202,-0.30779 -0.58889,-2.23759 -1.15689,-4.48297 -1.70398,-6.7358 -0.58782,-2.42049 -1.15151,-4.84958 -1.69107,-7.28686 -0.36577,2.46157 -0.71021,4.92984 -1.03289,7.40448 -0.30032,2.30324 -0.5818,4.61199 -0.84408,6.92597 z m 36.91597,1.81984 c 1.75545,-0.13391 3.51043,-0.27029 5.26491,-0.40919 -0.63214,-2.22508 -1.24337,-4.45836 -1.83367,-6.69952 -0.63425,-2.40794 -1.24435,-4.82497 -1.8303,-7.25066 -0.31822,2.46739 -0.61507,4.94105 -0.89009,7.42065 -0.25597,2.30786 -0.49304,4.62086 -0.71085,6.93872 z m 36.94471,1.08571 c 1.75239,-0.16995 3.50422,-0.34254 5.25549,-0.5178 -0.67831,-2.21095 -1.3357,-4.43056 -1.97216,-6.65847 -0.68384,-2.3937 -1.34353,-4.797 -1.97907,-7.20947 -0.26711,2.47282 -0.5128,4.95146 -0.7366,7.43558 -0.2083,2.31207 -0.39764,4.62888 -0.56766,6.95016 z m 36.96321,0.29953 c 1.74855,-0.20839 3.49647,-0.41959 5.24375,-0.63363 -0.72739,-2.19521 -1.43387,-4.39953 -2.11944,-6.61262 -0.73659,-2.37779 -1.44905,-4.7657 -2.13739,-7.16332 -0.21244,2.47788 -0.40341,4.9611 -0.57242,7.44931 -0.1573,2.31586 -0.29559,4.63604 -0.4145,6.96026 z m 36.97149,-0.53868 c 1.74393,-0.24924 3.48717,-0.50146 5.22968,-0.75668 -0.77938,-2.17784 -1.53788,-4.36529 -2.2755,-6.562 -0.79252,-2.36018 -1.56094,-4.73104 -2.30528,-7.11217 -0.1542,2.48256 -0.28687,4.96995 -0.39753,7.4618 -0.10298,2.31925 -0.1869,4.64236 -0.25137,6.96905 z m 36.97001,-1.42918 c 1.73892,-0.29272 3.47721,-0.58877 5.21477,-0.88832 -0.83526,-2.15838 -1.64935,-4.32701 -2.44239,-6.5055 -0.85206,-2.34062 -1.67983,-4.69262 -2.48343,-7.05554 -0.0921,2.48682 -0.16263,4.97792 -0.21114,7.47293 -0.0452,2.32219 -0.0712,4.64777 -0.0778,6.97643 z m 36.98005,-2.46023 c 1.73239,-0.34867 3.46355,-0.70188 5.19338,-1.0598 -0.90825,-2.12886 -1.79434,-4.26909 -2.65846,-6.42024 -0.92845,-2.31125 -1.83155,-4.63511 -2.70954,-6.97107 -0.0114,2.48839 -0.002,4.98041 0.0297,7.47568 0.0293,2.32244 0.0774,4.64769 0.14493,6.97543 z m 36.93356,-3.84297 c 1.71945,-0.42219 3.43708,-0.85013 5.15276,-1.284 -1.00231,-2.08653 -1.98161,-4.1857 -2.93817,-6.29705 -1.02776,-2.26846 -2.02928,-4.55098 -3.00488,-6.84697 0.0954,2.48615 0.21162,4.97505 0.34931,7.46628 0.12816,2.31867 0.27495,4.63937 0.44098,6.96174 z m 36.90314,-5.77302 c 1.10397,-0.35212 2.21115,-0.71248 3.31981,-1.08374 0,0 0,0 0,0 0.62443,-0.21461 1.24803,-0.42904 1.8708,-0.64327 0,0 0,0 0,0 -0.51796,-2.23992 -1.03602,-4.47982 -1.55416,-6.71971 0.51814,2.23989 1.03619,4.47978 1.55415,6.71967 -1.10297,-1.79372 -2.16959,-3.60281 -3.20102,-5.42677 -0.10876,-0.19263 -0.21713,-0.38545 -0.32512,-0.57847 -1.21749,-2.17606 -2.38658,-4.3765 -3.51611,-6.59746 0.28871,2.47033 0.59143,4.9431 0.91137,7.41744 0.29779,2.30296 0.61048,4.60728 0.94028,6.91231 z"
       id="path6729"
       inkscape:path-effect="#path-effect6731"
       inkscape:original-d="m 183.7685,461.35307 c 325.74101,43.86047 482.0074,6.44398 482.0074,6.44398"
       sodipodi:nodetypes="cc" />
  </g>
  <g
     id="layer1"
     inkscape:label="Layer 1"
     inkscape:groupmode="layer"
     style="display:inline">
    <g
       id="gspriral"
       inkscape:label="#gspiral">
      <path
         sodipodi:nodetypes="csssc"
         inkscape:original-d="m 735.04953,338.65397 c 0,0 -122.00333,45.21078 -166.36818,6.8799 -44.36485,-38.33088 56.46435,-109.0956 91.75457,-72.7304 35.29022,36.3652 -28.23217,39.31373 -49.4063,42.26226 -21.17414,2.94853 -19.15755,-35.38235 -19.15755,-35.38235"
         inkscape:path-effect="#path-effect6467;#path-effect6469"
         id="path6465"
         d="m 745.9652,344.74479 c -9.55324,5.71191 -19.47542,9.47024 -29.1526,11.45896 2.56052,-6.62349 4.23455,-13.30568 5.05048,-19.81233 7.84182,3.18482 15.88464,5.97661 24.10212,8.35337 z m -17.19594,23.07244 c -10.12342,2.86373 -20.1501,4.01937 -29.55721,3.62358 -0.51747,-0.0217 -1.03308,-0.048 -1.54676,-0.079 0.27261,-0.37338 0.54151,-0.74802 0.80668,-1.12384 3.80409,-5.3883 6.85207,-11.02444 9.16714,-16.71706 6.7607,5.09527 13.81286,9.86804 21.13015,14.29629 z m -22.56891,17.85926 c -11.12534,0.16261 -21.59816,-1.54518 -30.97256,-4.66298 5.52988,-4.45496 10.32186,-9.40455 14.28631,-14.63047 5.19649,6.68112 10.76266,13.12296 16.68625,19.29345 z m -26.42724,11.37363 c -9.63773,-2.44144 -18.43877,-6.16006 -26.08269,-10.82501 -0.89,-0.543 -1.76438,-1.09873 -2.62295,-1.66648 0.84585,-0.37361 1.6814,-0.75893 2.50624,-1.15563 5.50255,-2.64421 10.53973,-5.7923 15.05261,-9.30071 3.3055,7.79353 7.02518,15.45349 11.14679,22.94783 z m -28.48043,4.17259 c -9.70954,-5.42609 -17.92549,-12.14302 -24.48363,-19.53127 7.01655,-1.09205 13.64196,-2.98179 19.69143,-5.52253 1.15696,8.3849 2.7527,16.74748 4.7922,25.0538 z m -28.56833,-3.37132 c -6.71007,-6.531 -12.21171,-13.67197 -16.40634,-21.05103 -0.77793,-1.36829 -1.51106,-2.74457 -2.2,-4.12646 1.37904,0.14985 2.75119,0.26543 4.11473,0.34701 5.60851,0.33757 11.07958,0.1069 16.31698,-0.61562 -1.0361,8.40168 -1.64621,16.89503 -1.82537,25.4461 z m -26.7505,-10.63767 c -5.68837,-9.55434 -9.4447,-19.48069 -11.42824,-29.15821 6.62193,2.56352 13.3047,4.24044 19.81539,5.06851 -3.19299,7.83928 -5.99569,15.87824 -8.38715,24.0897 z m -23.04769,-17.20784 c -2.38691,-8.45485 -3.58453,-16.8431 -3.67181,-24.85701 -0.0224,-2.11206 0.035,-4.20017 0.16882,-6.25666 1.48949,1.09603 2.99821,2.13144 4.52012,3.10617 4.32999,2.76422 8.79163,5.05463 13.2908,6.88646 -5.09975,6.7565 -9.87603,13.80591 -14.30793,21.12104 z m -17.87104,-22.61255 c -0.16699,-11.16399 1.63714,-21.77257 5.03035,-30.98177 4.28329,5.60212 9.18983,10.38682 14.37859,14.34957 -6.73434,5.16036 -13.21618,10.71558 -19.40894,16.6322 z m -11.11854,-26.90814 c 2.70475,-9.74047 6.86177,-18.49236 12.19512,-25.64609 0.61054,-0.81814 1.23663,-1.61448 1.8768,-2.38861 0.28539,0.85219 0.58694,1.69175 0.90395,2.51782 2.14388,5.62362 4.98635,10.68227 8.30165,15.17296 -7.90538,2.94828 -15.67675,6.40741 -23.27752,10.34392 z m -2.55227,-29.43672 c 6.35033,-9.56112 14.44694,-16.93711 22.92056,-21.73989 -0.27218,6.98081 0.68535,13.6695 2.53988,19.66131 -8.47456,0.0843 -16.98656,0.7739 -25.46044,2.07858 z m 7.90507,-28.98278 c 9.42403,-6.66717 19.63925,-10.67857 29.27639,-11.6461 -2.97695,6.22898 -4.47397,12.63881 -4.82377,18.82469 -7.88504,-2.97732 -16.0611,-5.37344 -24.45262,-7.17859 z m 18.35465,-24.23446 c 0.0258,-0.006 0.0516,-0.012 0.0773,-0.018 11.41348,-2.56977 22.50188,-1.83765 31.55081,1.41641 -5.33224,4.35027 -9.36419,9.57695 -12.08528,14.98199 -5.91731,-5.89116 -12.37447,-11.31981 -19.30538,-16.21343 -0.0791,-0.0557 -0.15827,-0.11137 -0.2375,-0.16695 z m 27.1898,-14.66177 c 0.64069,0.14082 1.27619,0.29073 1.90619,0.44962 10.77318,2.71826 19.76206,8.19706 25.86318,14.89596 -6.7013,1.38072 -12.60238,4.2468 -17.27963,7.88733 -1.98016,-5.77533 -4.36291,-11.44565 -7.13847,-16.96648 -1.06097,-2.11111 -2.17854,-4.20044 -3.35127,-6.26643 z m 31.31065,-0.9322 c 0.99903,0.83203 1.96122,1.68785 2.8849,2.56515 7.61136,7.23353 12.37533,15.94089 14.17481,24.26044 -6.46513,-2.11987 -12.98051,-2.43771 -18.68441,-1.39624 0.63833,-3.8114 1.10006,-7.66549 1.38064,-11.54951 0.33166,-4.59316 0.41164,-9.226 0.24406,-13.87984 z m 28.25339,14.49179 c 0.68814,1.83366 1.27108,3.67326 1.74812,5.50777 2.47918,9.55453 1.88869,18.84618 -0.85629,26.32819 -4.33309,-5.19784 -9.72863,-8.80275 -15.0732,-10.67769 1.05012,-1.24417 2.07505,-2.51272 3.07385,-3.80494 4.17135,-5.39985 7.88213,-11.20753 11.10752,-17.35333 z m 16.93399,27.36028 c -0.51642,2.57963 -1.20864,5.06328 -2.06139,7.42511 0,0 -1e-5,0 -1e-5,0 -3.08789,8.51067 -8.33174,15.30232 -14.32163,19.51913 -0.0995,0.0701 -0.19924,0.13943 -0.29915,0.2081 -0.01,-0.10717 -0.0196,-0.21412 -0.0301,-0.32083 -0.62916,-6.42149 -3.08745,-12.09379 -6.40512,-16.33416 0,0 0,0 0,0 -0.0611,-0.0784 -0.12259,-0.15632 -0.18438,-0.23383 8.05712,-2.46344 15.86827,-5.91672 23.3018,-10.26352 z m -0.95923,32.68348 c -6.80927,6.66819 -14.9361,10.60075 -22.56113,11.74523 -2.40826,0.36149 -4.76433,0.44342 -7.01103,0.27862 1.09423,-1.67144 1.9903,-3.39696 2.68303,-5.12945 1.62508,-4.04163 2.19412,-8.1938 1.93041,-11.98295 7.96504,2.72323 16.35345,4.44659 24.95872,5.08855 z m -20.7083,26.14675 c -6.73646,0.73047 -13.15308,-0.091 -18.62482,-2.10562 -4.80296,-1.76986 -8.82828,-4.47801 -11.82732,-7.62948 3.71963,-1.00411 6.99843,-2.71427 9.58181,-4.82419 1.84707,-1.49733 3.38873,-3.21751 4.6112,-5.03501 4.41838,7.14919 9.88922,13.7486 16.25913,19.5943 z m -33.2993,6.68428 c -3.22447,-2.28694 -6.00903,-4.91382 -8.28417,-7.74227 -5.17301,-6.4612 -7.4291,-13.83994 -7.27989,-20.28045 4.958,2.80606 10.33695,3.74904 14.76676,3.0259 0.67338,-0.10244 1.33269,-0.23989 1.97499,-0.40882 -1.66804,8.22822 -2.05473,16.79349 -1.17769,25.40564 z m -29.14066,-18.36118 c -0.35395,-1.96268 -0.56463,-3.9093 -0.63748,-5.82011 -0.37545,-10.61328 3.69223,-19.65214 9.39255,-25.03874 1.73696,6.30034 5.68661,11.21877 10.01524,13.69962 -1.6566,1.08921 -3.27627,2.24273 -4.85505,3.45963 -5.10869,3.9369 -9.77563,8.53915 -13.91526,13.6996 z"
         style="fill:#000000;fill-rule:evenodd;stroke:none" />
      <path
         style="fill:none;stroke:#000000;stroke-width:4.59222555;stroke-miterlimit:4;stroke-opacity:1;stroke-dasharray:none"
         d="m 730.15341,335.83155 c -7.74392,13.84258 -19.081,25.65486 -32.59411,33.96034 -13.51312,8.30549 -29.17226,13.08571 -45.02007,13.74317 -15.84781,0.65746 -31.84909,-2.80932 -46.0037,-9.96698 -14.15462,-7.15767 -26.43113,-17.99033 -35.29501,-31.14392 -9.59616,-14.24027 -15.17978,-31.39843 -14.40665,-48.55284 0.77312,-17.15442 8.19057,-34.17128 21.1546,-45.43209 6.48202,-5.6304 14.26301,-9.78721 22.59206,-11.87166 8.32904,-2.08444 17.19564,-2.07595 25.47531,0.19671 8.27967,2.27265 15.94599,6.82345 21.77746,13.12519 5.83147,6.30173 9.79016,14.34841 11.05009,22.84138 0.9255,6.23865 0.40025,12.70116 -1.63015,18.67232 -2.0304,5.97116 -5.57292,11.43632 -10.27204,15.64293 -4.69912,4.20661 -10.55173,7.13436 -16.75738,8.26005 -6.20565,1.12569 -12.74624,0.43089 -18.53274,-2.07784 -6.35176,-2.7538 -11.73241,-7.6914 -15.02055,-13.78372 -3.28814,-6.09233 -4.46256,-13.3001 -3.2785,-20.12112"
         id="spiral"
         inkscape:path-effect="#path-effect6481"
         inkscape:original-d="m 730.15341,335.83155 c 0,0 -116.53611,43.32287 -158.91289,6.59261 -42.37676,-36.73025 53.93408,-104.53996 87.64287,-69.69331 33.7088,34.84666 -26.96703,37.67207 -47.19231,40.49746 -20.22528,2.82541 -18.29905,-33.90484 -18.29905,-33.90484"
         sodipodi:nodetypes="csssc" />
    </g>
  </g>
  <g
     inkscape:groupmode="layer"
     id="layer2"
     inkscape:label="Layer"
     style="display:inline">
    <path
       style="fill:#000000;fill-opacity:1;stroke:#000000;stroke-width:1px;stroke-linecap:butt;stroke-linejoin:miter;stroke-opacity:1"
       d="m 5,148.33333 c 0,0 130,-43.33333 150,43.33334 20,86.66666 -60,233.33333 33.33333,270 93.33334,36.66666 465,15 465,15 0,0 81.66667,8.33333 86.66667,-53.33334 5,-61.66666 -83.33333,-196.66666 -43.33333,-241.66666 40,-45 105,-40 105,-40 l -1.66667,460 -800,1.66666"
       id="path6490" />
  </g>
</svg>
